<?xml version="1.0" encoding="UTF-8"?>
<svg id="Layer_1" xmlns="http://www.w3.org/2000/svg" version="1.1" viewBox="0 0 1133.86 566.93">
  <!-- Generator: Adobe Illustrator 30.0.0, SVG Export Plug-In . SVG Version: 2.1.1 Build 123)  -->
  <defs>
    <style>
      .st0 {
        fill: #fff;
      }
    </style>
  </defs>
  <path class="st0" d="M1133.86,254.33v4.46c-.57,23.16-9.71,45.78-26.43,62.81l-125.26,127.54c-4.52,4.59-10.63,7.18-17.01,7.18h-65.94c-21.43,0-32.15-26.37-17.01-41.79,48.77-49.67,111.62-113.63,147.01-149.72,11.25-10.99-5.33-23.26-12.33-30.61,0,0-1.73-1.78-4.2-4.28-9.37-9.56-24.6-9.56-34,0-63.68,64.83-154.11,156.91-215.31,219.24-4.49,4.59-10.61,7.16-16.99,7.16h-65.96c-21.41,0-32.15-26.35-17.01-41.76,49-49.91,113.41-115.45,147.04-149.72,11.25-10.99-5.33-23.26-12.33-30.64,0,0-1.75-1.75-4.2-4.26-9.4-9.58-24.62-9.58-34,0l-215.31,219.24c-4.37,4.43-10.23,6.98-16.41,7.14-.19.02-.41.02-.6.02h-65.91c-.22,0-.45,0-.66-.02-20.96-.52-31.34-26.51-16.35-41.76,48.99-49.88,113.44-115.51,147.01-149.7l-.02-.02c11.27-11.03-5.35-23.26-12.33-30.64,0,0-1.73-1.75-4.23-4.3-9.4-9.53-24.6-9.56-33.98,0-60.62,61.73-159.31,162.24-215.33,219.28-4.52,4.58-10.61,7.14-16.99,7.14h-65.94c-21.43,0-32.15-26.35-17.01-41.76l147.01-149.72c4.88-4.97,4.88-13.08,0-18.04-3.72-3.85-10.12-10.38-16.56-16.91-9.4-9.52-24.59-9.52-33.96.02-60.62,61.73-159.34,162.24-215.33,219.28-4.52,4.58-10.63,7.14-16.99,7.14H24.09c-14.5,0-24.09-12.07-24.09-24.63,0-6.02,2.17-12.14,7.08-17.13,52.49-53.45,121.4-123.63,167.53-170.58,9.37-9.56,24.6-9.56,33.98,0,5.74,5.84,11.85,12.07,17.59,17.9,9.4,9.56,24.6,9.58,34,0,42.69-43.48,89.61-91.26,132.23-134.68,9.13-9.28,23.8-9.58,33.28-.68,7.14,6.69,13.82,13.41,13.93,15.71l6.68,21.48c2.83,9.15,14.15,11.97,20.8,5.19,11.54-11.83,35.19-35.81,50.2-51.1,4.52-4.59,10.63-7.16,17.01-7.16h83.69c6.09,0,11.95,2.33,16.38,6.56l9.02,8.57c3.21,3.53,13.95,11.6,15,16.47,3.93,11.79,7.68,37.72,24.04,28.9,1.92-1.05,3.64-2.43,5.18-4.01,12.04-12.32,34.18-34.76,48.48-49.34,4.36-4.43,10.23-7.01,16.41-7.14.19-.02.39-.02.58-.02h83.71c.37,0,.76,0,1.12.02,5.67.28,11.05,2.61,15.23,6.54l9.02,8.54v.02c3.19,3.54,13.95,11.59,14.98,16.47,3.91,11.83,7.68,37.74,24.05,28.92,1.92-1.05,3.62-2.43,5.16-3.99,7.22-7.36,35.2-35.84,48.46-49.35,4.37-4.43,10.23-7.01,16.41-7.14.19-.02.39-.02.58-.02h83.67c.37,0,.76,0,1.12.02,5.67.28,11.05,2.57,15.23,6.52,5.42,5.16,11.95,11.25,16.85,15.9,2.51,2.39,4.49,5.29,5.8,8.54,7.33,18.02,32.46,79.83,32.46,79.83,4.32,10.64,6.58,21.79,6.85,32.91h.04Z"/>
</svg>