<svg xmlns="http://www.w3.org/2000/svg" viewBox="0 0 512 512"><defs><linearGradient id="grad1" x1="0%" x2="100%" y1="0%" y2="100%"><stop offset="0%" style="stop-color:#ff9f76;stop-opacity:1"/><stop offset="100%" style="stop-color:#ff7e5f;stop-opacity:1"/></linearGradient></defs><path fill="#e0e0e0" d="M256 64L32 176l224 112 224-112L256 64z"/><path fill="silver" d="M448 176v112c0 17.7-14.3 32-32 32s-32-14.3-32-32V192l64-32z"/><path fill="#e0e0e0" d="M256 448c-70.7 0-128-57.3-128-128H48c0 114.9 93.1 208 208 208s208-93.1 208-208h-80c0 70.7-57.3 128-128 128z" opacity=".2"/><path fill="#f5f5f5" d="M128 224v64c0 70.7 57.3 128 128 128s128-57.3 128-128v-64L256 288 128 224z"/><circle cx="380" cy="120" r="40" fill="url(#grad1)" stroke="#18181B" stroke-width="8"/></svg>