<?xml version="1.0" encoding="utf-8"?>
<!-- Generator: Adobe Illustrator 28.0.0, SVG Export Plug-In . SVG Version: 6.00 Build 0)  -->
<svg version="1.1" id="Layer_1" xmlns="http://www.w3.org/2000/svg" xmlns:xlink="http://www.w3.org/1999/xlink" x="0px" y="0px"
	 viewBox="0 0 425.2 226.8" style="enable-background:new 0 0 425.2 226.8;" xml:space="preserve">
<style type="text/css">
	.st0{fill:#F48020;}
	.st1{fill:#333333;}
	.st2{fill:#FFFFFF;}
</style>
<g>
	<g>
		<g>
			<path class="st0" d="M7.8,113.4c0-51.8,19.4-71.2,71.2-71.2s71.2,19.4,71.2,71.2s-19.4,71.2-71.2,71.2S7.8,165.2,7.8,113.4"/>
		</g>
	</g>
	<g>
		<path class="st1" d="M55.5,154.8c-2.5,0-5,0-7.5,0c-0.5,0-0.6-0.1-0.6-0.6c0-1.1,0-1.1-1.1-1.1c-1,0-0.9,0.1-0.9-0.9
			c0-0.9,0.1-0.8-0.8-0.8c-0.3,0-0.5,0-0.8,0c-0.4,0-0.5-0.1-0.5-0.5c0-0.8,0-1.5,0-2.3c0-0.4-0.1-0.5-0.5-0.5c-0.4,0-0.8,0-1.2,0
			c-0.3,0-0.4-0.1-0.4-0.4c0-1.1,0-2.3,0-3.4c0-3.5,0-7,0-10.4c0-0.6,0-0.6,0.6-0.6c0.3,0,0.7,0,1,0c0.3,0,0.4-0.1,0.4-0.4
			c0-0.8,0-1.7,0-2.5c0-0.3,0.1-0.5,0.4-0.4c0.4,0,0.8,0,1.2,0c0.3,0,0.4-0.1,0.4-0.4c0-0.3,0-0.5,0-0.8c0-0.4,0.1-0.5,0.5-0.5
			c0.3,0,0.7,0,1,0c0.3,0,0.5-0.1,0.5-0.4c0-1.1,0-1.1,1.2-1.1c1.5,0,2.9,0,4.4,0c0.4,0,0.5-0.1,0.5-0.5c0-1.2,0-1.2,1.2-1.2
			c0.8,0,1.6,0,2.4,0c0.3,0,0.5,0.1,0.5,0.5c0,1.2,0,1.2,1.3,1.2c1.4,0,2.9,0,4.3,0c0.4,0,0.5,0.1,0.5,0.5c0,1.1,0,1.1,1.1,1.1
			c1.1,0,0.9-0.1,0.9,1c0,0.7,0,0.7,0.7,0.7c1.2,0,1.2,0,1.2,1.2c0,0.6,0,1.2,0,1.7c0,0.3,0.1,0.4,0.4,0.4c0.4,0,0.8,0,1.2,0
			c0.4,0,0.5,0.1,0.5,0.5c0,0.8,0,1.6,0,2.4c0,3.8,0,7.6,0,11.4c0,0.6,0,0.6-0.6,0.6c-0.5,0-1-0.2-1.3,0.1c-0.3,0.3-0.1,0.9-0.1,1.3
			c0,0.5,0,0.9,0,1.3c0,0.4-0.1,0.5-0.5,0.5c-0.3,0-0.7,0-1,0c-0.3,0-0.5,0.1-0.5,0.4c0,1.2,0,1.2-1.3,1.2c-0.1,0-0.3,0-0.4,0
			c-0.2,0-0.3,0.1-0.3,0.3c0,0.3,0,0.6,0,0.8c0,0.4-0.1,0.5-0.5,0.5c-1.9,0-3.8,0-5.7,0C56.8,154.8,56.1,154.8,55.5,154.8z"/>
	</g>
	<g>
		<path class="st1" d="M66.4,83.2c-4.1,0-8.3,0-12.4,0c-0.6,0-0.7,0-0.7-0.6c0-1.3,0-2.6,0-3.9c0-0.4,0.1-0.5,0.5-0.5
			c0.3,0,0.6,0,0.9,0c0.4,0,0.5-0.1,0.5-0.5c0-1.2,0-2.5,0-3.7c0-0.5,0.1-0.7,0.6-0.6c0.3,0,0.7,0,1,0c0.4,0,0.5-0.1,0.5-0.5
			c0-0.3,0-0.6,0-0.8c0-0.3,0.1-0.4,0.4-0.4c0.1,0,0.2,0,0.3,0c6.3,0,12.5,0,18.8,0c0.7,0,0.7,0,0.7,0.7c0,1,0,1,1,1
			c1.2,0,1-0.2,1,1c0,2.7,0,5.4,0,8.1c0,0.7,0,0.7-0.7,0.7C74.7,83.2,70.5,83.2,66.4,83.2z"/>
	</g>
	<g>
		<path class="st1" d="M117,113.6c-3.2,0-6.3,0-9.5,0c-0.5,0-0.6-0.1-0.6-0.6c0-1.1,0-1.1-1.1-1.1c-1,0-0.9,0.1-0.9-0.9
			c0-1.8,0-3.5,0-5.3c0-0.4,0.1-0.6,0.5-0.6c0.3,0,0.7,0,1,0c0.4,0,0.5-0.1,0.4-0.5c0-0.3,0-0.6,0-0.8c0-0.3,0.1-0.4,0.4-0.4
			c0.1,0,0.2,0,0.3,0c6.3,0,12.6,0,18.8,0c0.7,0,0.7,0,0.7,0.7c0,1,0,1,1,1c1.2,0,1-0.2,1,1c0,1.7,0,3.4,0,5.1
			c0,0.4-0.1,0.6-0.5,0.5c-0.4,0-0.7,0-1.1,0c-0.3,0-0.5,0.1-0.5,0.4c0,1.2,0,1.2-1.3,1.2C122.9,113.6,120,113.6,117,113.6z"/>
	</g>
	<g>
		<path class="st2" d="M118.1,131.8c0,0.1,0,10.6,0,10.8c0,0.1,0,0.1,0,0.2c0,0.2,0,0.2-0.2,0.2c-0.6,0-1.2,0-1.8,0
			c-0.2,0-0.2,0-0.2,0.2c0,1.3,0,2.7,0,4c0,0.3,0,0.3-0.3,0.3c-0.6,0-1.2,0-1.8,0c-0.2,0-0.2,0-0.2,0.2c0,0.6,0,1.3,0,1.9
			c0,0.2,0,0.2-0.2,0.2c-0.6,0-1.2,0-1.8,0c-0.3,0-0.3,0-0.3,0.3c0,0.6,0,1.2,0,1.8c0,0.2,0,0.2-0.2,0.2c-1.3,0-2.7,0-4,0
			c-0.3,0-0.3,0-0.3,0.3c0,0.6,0,1.1,0,1.7c0,0.3,0,0.3-0.3,0.3c-1.1,0-6.6,0-7.7,0c-2.5,0-5.1,0-7.7,0c-0.3,0-0.3,0-0.3-0.3
			c0-0.6,0-1.2,0-1.8c0-0.2,0-0.2-0.2-0.2c-1.3,0-2.7,0-4,0c-0.3,0-0.3,0-0.3-0.3c0-0.6,0-1.1,0-1.7c0-0.3,0-0.3-0.3-0.3
			c-0.6,0-1.2,0-1.8,0c-0.2,0-0.2,0-0.2-0.2c0-0.6,0-1.2,0-1.8c0-0.2,0-0.2-0.2-0.2c-0.6,0-1.2,0-1.8,0c-0.2,0-0.2,0-0.2-0.2
			c0-0.6,0-1.2,0-1.8c0-0.3,0-0.3-0.3-0.3c-0.6,0-1.1,0-1.7,0c-0.3,0-0.3,0-0.3-0.3c0-2.1,0-4.2,0-6.2c0-0.3,0-0.3-0.3-0.3
			c-0.6,0-1.2,0-1.7,0c-0.2,0-0.2,0-0.2,0.2c0,0.6,0,1.2,0,1.8c0,0.2,0,0.2-0.2,0.2c-0.6,0-1.2,0-1.8,0c-0.2,0-0.2,0-0.2,0.2
			c0,0.6,0,1.2,0,1.8c0,0.2,0,0.2-0.2,0.2c-0.6,0-1.2,0-1.8,0c-0.2,0-0.2,0-0.2,0.2c0,0.6,0,1.2,0,1.8c0,0.3,0,0.2-0.2,0.2
			c-2.1,0-4.1,0-6.2,0c-0.1,0-0.1,0-0.2,0c-0.2,0-0.2,0-0.2,0.2c0,0.6,0,1.2,0,1.8c0,0.3,0,0.3-0.3,0.3c-0.6,0-1.2,0-1.8,0
			c-0.2,0-0.2,0-0.2,0.2c0,0.6,0,1.3,0,1.9c0,0.2,0,0.2-0.2,0.2c-0.6,0-1.2,0-1.8,0c-0.3,0-0.3,0-0.3,0.3c0,0.6,0,1.2,0,1.8
			c0,0.2,0,0.2-0.2,0.2c-1.3,0-7.3,0-8.5,0c0,0-0.1,0-0.1,0c-0.2,0-0.2,0-0.2-0.2c0-0.6,0-1.2,0-1.8c0-0.2,0-0.2-0.3-0.2
			c-1.3,0-2.6,0-3.9,0c0,0-0.1,0-0.1,0c-0.2,0-0.2,0-0.2-0.2c0-0.6,0-1.2,0-1.8c0-0.3,0-0.3-0.3-0.3c-1.3,0-2.7,0-4,0
			c-0.3,0-0.3,0-0.3-0.3c0-0.6,0-1.2,0-1.8c0-0.2,0-0.2-0.2-0.2c-0.6,0-1.2,0-1.8,0c-0.3,0-0.3,0-0.3-0.3c0-1.3,0-2.7,0-4
			c0-0.3,0-0.3-0.3-0.3c-0.6,0-1.2,0-1.8,0c-0.2,0-0.2,0-0.2-0.2c0-1.7,0-3.4,0-5.1c0-0.4,0-0.8,0-1.3c0-0.2,0-0.2,0.2-0.2
			c0.6,0,1.2,0,1.8,0c0.3,0,0.3,0,0.3-0.2c0-0.6,0-10.3,0-10.8c0-0.3,0-0.3,0.3-0.3c0.6,0,1.2,0,1.8,0c0.2,0,0.2,0,0.2-0.2
			c0-1.2,0-2.4,0-3.6c0-2.4,0-4.8,0-7.2c0-0.3,0-0.3,0.3-0.3c0.6,0,1.2,0,1.8,0c0.2,0,0.2,0,0.2-0.2c0-0.6,0-1.2,0-1.8
			c0-0.2,0-0.2,0.2-0.2c1.4,0,2.7,0,4.1,0c0.2,0,0.2,0,0.2,0.2c0,0.6,0,1.2,0,1.8c0,0.2,0,0.2,0.2,0.2c0.6,0,1.2,0,1.8,0
			c0.2,0,0.2,0,0.2,0.2c0,0.6,0,1.2,0,1.8c0,0.2,0,0.2,0.2,0.2c0.6,0,1.2,0,1.8,0c0.3,0,0.3,0,0.3,0.3c0,0.6,0,1.2,0,1.8
			c0,0.2,0,0.2,0.2,0.2c0.6,0,1.3,0,1.9,0c0.2,0,0.2,0,0.2,0.2c0,1.3,0,2.7,0,4c0,0.3,0,0.3,0.3,0.3c0.6,0,1.1,0,1.7,0
			c0.3,0,0.3,0,0.3,0.3c0,0.6,0,1.2,0,1.8c0,0.2,0,0.2,0.2,0.2c0.6,0,1.3,0,1.9,0c0.2,0,0.2,0,0.2-0.2c0-2.1,0-4.3,0-6.4
			c0-0.2,0-0.2-0.2-0.2c-0.6,0-1.2,0-1.8,0c-0.3,0-0.3,0-0.3-0.3c0-0.6,0-1.2,0-1.8c0-0.2,0-0.2-0.2-0.2c-0.6,0-1.2,0-1.8,0
			c-0.2,0-0.2,0-0.2-0.2c0-1.3,0-2.7,0-4c0-0.3,0-0.3-0.3-0.3c-0.6,0-1.2,0-1.7,0c-0.3,0-0.2,0-0.2-0.2c0-0.6,0-1.2,0-1.8
			c0-0.2,0-0.2-0.2-0.2c-1.3,0-2.7,0-4,0c-0.3,0-0.3,0-0.3-0.3c0-0.6,0-1.2,0-1.8c0-0.2,0-0.2-0.2-0.2c-0.6,0-1.2,0-1.8,0
			c-0.3,0-0.3,0-0.3-0.3c0-0.6,0-1.2,0-1.8c0-0.2,0-0.2-0.2-0.2c-0.6,0-1.2,0-1.8,0c-0.2,0-0.2,0-0.2-0.2c0-0.6,0-1.2,0-1.8
			c0-0.2,0-0.2-0.3-0.2c-0.6,0-1.2,0-1.8,0c-0.3,0-0.2,0-0.2-0.2c0-0.6,0-1.2,0-1.8c0-0.2,0-0.2-0.2-0.2c-0.6,0-1.2,0-1.8,0
			c-0.2,0-0.2,0-0.2-0.2c0-1.3,0-2.7,0-4c0-0.3,0-0.3-0.3-0.3c-0.6,0-1.1,0-1.7,0c-0.3,0-0.3,0-0.3-0.3c0-1.2,0-5.1,0-6.2
			c0-0.1,0-0.1,0-0.2c0-0.2,0-0.2,0.2-0.2c0.3,0,0.7,0,1,0c0.3,0,0.6,0,0.9,0c0.2,0,0.2,0,0.2-0.2c0-0.8,0-1.5,0-2.3
			c0-0.6,0-1.2,0-1.8c0-0.3,0-0.3,0.3-0.3c0.6,0,1.2,0,1.8,0c0.2,0,0.2,0,0.2-0.2c0-0.6,0-1.2,0-1.8c0-0.2,0-0.2,0.2-0.2
			c0.6,0,1.2,0,1.8,0c0.3,0,0.3,0,0.3-0.3c0-0.6,0-1.2,0-1.8c0-0.2,0-0.2,0.2-0.2c0.6,0,1.2,0,1.8,0c0.2,0,0.2,0,0.2-0.2
			c0-0.6,0-1.2,0-1.8c0-0.2,0-0.2,0.3-0.2c2.1,0,4.2,0,6.3,0c0.3,0,0.3,0,0.3-0.3c0-0.6,0-1.2,0-1.8c0-0.2,0-0.2,0.2-0.2
			c2.1,0,4.3,0,6.4,0c0.2,0,0.2,0,0.2,0.2c0,0.6,0,1.2,0,1.8c0,0.3,0,0.3,0.3,0.3c2,0,4.1,0,6.1,0c0.3,0,0.4,0.1,0.4,0.4
			c0,0.6,0,1.1,0,1.7c0,0.2,0,0.2,0.2,0.2c0.6,0,1.2,0,1.8,0c0.2,0,0.2,0,0.2,0.2c0,0.6,0,1.2,0,1.8c0,0.3,0,0.3,0.3,0.3
			c0.6,0,1.2,0,1.8,0c0.3,0,0.3,0,0.3,0.3v13c0,0.1,0,0.1,0,0.2c0,0.2,0,0.2-0.2,0.2c-0.6,0-1.2,0-1.8,0c-0.3,0-0.3,0-0.3,0.3
			c0,2.1,0,4.1,0,6.2c0,0.3,0,0.3-0.3,0.3c-0.6,0-1.2,0-1.8,0c-0.2,0-0.2,0-0.2,0.2c0,0.4,0,0.8,0,1.2c0,2.5,0,4.9,0,7.4
			c0,0.3,0,0.3,0.3,0.3c0.6,0,1.2,0,1.7,0c0.3,0,0.3,0,0.3,0.2c0,0.6,0,1.2,0,1.8c0,0.2,0,0.2,0.2,0.2c2.9,0,5.8,0,8.6,0
			c0.2,0,0.2,0,0.2-0.2c0-2.1,0-4.2,0-6.4c0,0,0-0.1,0-0.1c0-0.1,0-0.1-0.1-0.1c-0.1,0-0.1,0-0.2,0c-0.6,0-1.2,0-1.8,0
			c-0.2,0-0.2,0-0.2-0.2c0,0,0-0.1,0-0.1c0-4.3,0-8.6,0-13c0-0.4,0-0.3,0.3-0.3c0.6,0,1.2,0,1.7,0c0.2,0,0.2,0,0.2-0.2
			c0-2.1,0-4.2,0-6.3c0-0.3,0-0.3,0.3-0.3c0.6,0,1.2,0,1.7,0c0.2,0,0.2,0,0.2-0.2c0-0.6,0-1.2,0-1.8c0-0.2,0-0.2,0.2-0.2
			c0.6,0,1.2,0,1.8,0c0.2,0,0.2,0,0.2-0.3c0-0.6,0-1.2,0-1.8c0-0.2,0-0.2,0.2-0.2c0.6,0,1.2,0,1.8,0c0.2,0,0.2,0,0.2-0.2
			c0-0.6,0-1.2,0-1.8c0-0.2,0-0.2,0.3-0.2c0.6,0,1.2,0,1.8,0c0.3,0,0.2,0,0.2-0.2c0-0.6,0-1.2,0-1.8c0-0.2,0-0.2,0.2-0.2
			c1.3,0,2.7,0,4,0c0.3,0,0.3,0,0.3-0.3c0-0.6,0-1.2,0-1.7c0-0.3,0-0.3,0.2-0.3c0.6,0,10.1,0,10.7,0c0.1,0,0.1,0,0.2,0
			c0.2,0,0.2,0,0.2,0.2c0,0.6,0,1.2,0,1.8c0,0.2,0,0.2,0.2,0.2c0.6,0,1.2,0,1.8,0c0.3,0,0.3,0,0.3,0.3c0,0.6,0,1.2,0,1.8
			c0,0.2,0,0.2,0.2,0.2c0.6,0,1.2,0,1.8,0c0.2,0,0.2,0,0.2,0.2c0,0.6,0,1.2,0,1.8c0,0.2,0,0.2,0.2,0.2c0.6,0,1.2,0,1.8,0
			c0.3,0,0.3,0,0.3,0.3c0,0.6,0,1.2,0,1.8c0,0.2,0,0.2,0.2,0.2c0.6,0,1.2,0,1.8,0c0.2,0,0.2,0,0.2,0.2c0,0.5,0,1.1,0,1.6
			c0,4.6,0,9.2,0,13.7c0,0.4,0,0.3,0.3,0.3c0.6,0,1.2,0,1.7,0c0.2,0,0.2,0,0.2,0.2c0,2.2,0,4.4,0,6.7c0,1.4,0,2.8,0,4.1
			c0,0.3,0,0.3-0.3,0.3c-0.6,0-1.1,0-1.7,0c-0.2,0-0.2,0-0.2,0.2c0,1.3,0,2.6,0,3.9c0,0.1,0,0.1,0,0.2c0,0.2,0,0.2-0.2,0.2
			c-0.6,0-1.2,0-1.8,0c-0.3,0-0.3,0-0.3,0.3c0,0.6,0,1.2,0,1.8c0,0.2,0,0.2-0.2,0.2c-0.6,0-1.2,0-1.8,0c-0.2,0-0.2,0-0.2,0.2
			c0,0.6,0,1.2,0,1.8c0,0.2,0,0.2-0.2,0.2c-2.1,0-4.2,0-6.4,0c0,0-0.1,0-0.1,0c-0.1,0-0.1,0-0.1-0.1c0-0.1,0-0.1,0-0.2
			c0-0.6,0-1.2,0-1.8c0-0.2,0-0.2-0.2-0.2c-1.3,0-2.7,0-4,0c-0.3,0-0.3,0-0.3-0.3c0-0.6,0-1.2,0-1.8c0-0.2,0-0.2-0.2-0.2
			c-1.4,0-2.8,0-4.1,0c-0.2,0-0.2,0-0.2,0.2c0,1.4,0,2.8,0,4.1c0,0.2,0,0.2,0.2,0.2c0.6,0,1.3,0,1.9,0c0.2,0,0.2,0,0.2,0.2
			c0,0.6,0,1.2,0,1.8c0,0.3,0,0.2,0.2,0.2c3.6,0,7.2,0,10.8,0c0.4,0,0.3,0,0.3,0.3c0,0.6,0,1.1,0,1.7c0,0.3,0,0.2,0.2,0.2
			c1.3,0,2.7,0,4,0c0.3,0,0.3,0,0.3,0.3c0,0.6,0,1.2,0,1.8c0,0.2,0,0.2,0.2,0.2c0.6,0,1.2,0,1.8,0c0.3,0,0.3,0,0.3,0.3
			c0,0.6,0,1.2,0,1.8c0,0.2,0,0.2,0.2,0.2c0.6,0,1.3,0,1.9,0c0.2,0,0.2,0,0.2,0.2c0,1.3,0,2.7,0,4c0,0.3,0,0.3,0.3,0.3
			c0.6,0,1.2,0,1.8,0C118.2,131.6,118.2,131.6,118.1,131.8L118.1,131.8z M88.4,118c0.3,0,0.3,0,0.3-0.3c0-5.8,0-11.7,0-17.5
			c0-0.1,0-0.1,0-0.2c0-0.1,0-0.1-0.1-0.1c-0.1,0-0.1,0-0.2,0c-0.6,0-1.2,0-1.8,0c-0.2,0-0.2,0-0.2-0.2c0-0.4,0-0.8,0-1.2
			c0-0.3,0-0.5,0-0.8c0-0.1,0-0.2-0.2-0.1c0,0-0.1,0-0.1,0c-1.3,0-2.6,0-4,0c-0.3,0-0.3,0-0.3,0.3c0,5.9,0,11.8,0,17.6
			c0,0.7,0,1.4,0,2.2c0,0.3,0,0.3-0.3,0.3c-0.6,0-1.2,0-1.7,0c-0.2,0-0.2,0-0.2,0.2c0,0.6,0,1.2,0,1.8c0,0.2,0,0.2-0.2,0.2
			c-2.1,0-4.3,0-6.4,0c-0.2,0-0.2,0-0.2-0.2c0-0.6,0-1.2,0-1.8c0-0.3,0-0.3-0.3-0.3c-0.6,0-1.2,0-1.7,0c-0.2,0-0.2,0-0.2-0.2
			c0-0.6,0-1.2,0-1.8c0-0.2,0-0.2-0.2-0.2c-0.6,0-1.2,0-1.8,0c-0.3,0-0.3,0-0.3-0.3c0-1.3,0-2.7,0-4c0-0.3,0-0.3-0.3-0.3
			c-0.6,0-1.1,0-1.7,0c-0.3,0-0.3,0-0.3-0.3c0-3.3,0-8.3,0-11.6c0-2.8,0-5.5,0-8.3c0-0.2,0-0.2-0.2-0.2c-2.1,0-4.3,0-6.4,0
			c-0.2,0-0.2,0-0.2,0.2c0,0.6,0,1.1,0,1.7c0,0.1,0,0.2,0,0.3c0,0.1,0,0.1-0.1,0.1c-0.1,0-0.1,0-0.2,0c-0.6,0-1.2,0-1.8,0
			c-0.1,0-0.2,0-0.2,0.2c0,0.1,0,0.1,0,0.2v5.9c0,1.6,0,3.2,0,4.8c0,0.3,0,0.2,0.2,0.2c0.6,0,1.2,0,1.7,0c0.3,0,0.3,0,0.3,0.3
			c0,1.3,0,2.7,0,4c0,0.2,0,0.2,0.2,0.2c0.6,0,1.2,0,1.8,0c0.3,0,0.3,0,0.3,0.3c0,1.3,0,2.7,0,4c0,0.3,0,0.3,0.3,0.3
			c0.6,0,1.2,0,1.8,0c0.2,0,0.2,0,0.2,0.2c0,0.6,0,1.2,0,1.8c0,0.2,0,0.2,0.2,0.2c0.6,0,1.3,0,1.9,0c0.2,0,0.2,0,0.2,0.2
			c0,0.6,0,1.2,0,1.8c0,0.3,0,0.3,0.3,0.3c0.6,0,1.2,0,1.8,0c0.2,0,0.2,0,0.2,0.2s0,0.4,0,0.6c0,0.4,0,0.9,0,1.3
			c0,0.1,0,0.2,0.1,0.1c0,0,0.1,0,0.2,0c0.6,0,1.2,0,1.8,0c0.2,0,0.2,0,0.2,0.2c0,0.3,0,0.5,0,0.8c0,0.4,0,0.8,0,1.1
			c0,0.2,0,0.2,0.2,0.2c0,0,0.1,0,0.1,0c1.3,0,2.6,0,3.9,0c0.4,0,0.3,0,0.3,0.3c0,0.6,0,1.1,0,1.7c0,0.1,0,0.1,0,0.2
			c0,0.1,0,0.1,0.1,0.1c0.1,0,0.1,0,0.2,0c0.6,0,1.2,0,1.8,0c0.2,0,0.2,0,0.2,0.2c0,0.5,0,1,0,1.5c0,0.2,0,0.3,0,0.5
			c0,0.1,0,0.1,0.1,0.1c0,0,0.1,0,0.2,0c0.6,0,1.2,0,1.7,0c0.2,0,0.2,0,0.2,0.3c0,0.3,0,0.6,0,1c0,2.5,0,5,0,7.6
			c0,0.3,0,0.3,0.3,0.3c0.6,0,1.1,0,1.7,0c0.3,0,0.3,0,0.3-0.3c0-2.1,0-4.2,0-6.3c0-0.3,0-0.2,0.2-0.2c0.6,0,1.2,0,1.8,0
			c0.2,0,0.2,0,0.2-0.2c0-0.6,0-3.5,0-4.1c0-0.3,0-0.3,0.3-0.3c0.3,0,0.5,0,0.7,0c0.4,0,0.8,0,1.1,0c0.1,0,0.2,0,0.1-0.1
			c0,0,0-0.1,0-0.2v-3.5c0-0.9,0-1.8,0-2.8c0-0.2,0-0.2,0.2-0.2C87.2,118,87.8,118,88.4,118L88.4,118z"/>
	</g>
	<g>
		<path class="st1" d="M117.1,118.5c3.2,0,6.3,0,9.5,0c0.6,0,0.6,0,0.6,0.6c0,1,0,1,1,1c1,0,1,0,1,1.1c0,1.7,0,3.3,0,5
			c0,0.6,0,0.6-0.7,0.6c-1,0-1.9,0-2.9,0c-0.4,0-0.5,0.1-0.5,0.5c0,1.2,0,1.2-1.2,1.2c-4.8,0-9.5,0-14.3,0c-0.6,0-0.6,0-0.6-0.6
			c0-1,0-1-1.1-1c-0.8,0-1.6,0-2.5,0c-0.3,0-0.5-0.1-0.5-0.4c0-1.9,0-3.9,0-5.8c0-0.3,0.1-0.4,0.4-0.4c0.4,0,0.8,0,1.1,0
			c0.3,0,0.4-0.1,0.4-0.4c0-0.3,0-0.5,0-0.8c0-0.3,0.1-0.4,0.4-0.4c0.5,0,1.1,0,1.6,0C111.7,118.5,114.4,118.5,117.1,118.5z"/>
	</g>
</g>
<g>
	<g>
		<path class="st0" d="M217.9,73.4v30.2h-9.2V81.2l-10.4,19.4l-1.6,3l0,0h-3.3h-3.3l0,0l-1.6-3l-10.4-19.4v22.4H169V73.4h14.7
			l9.7,18.1l9.7-18.1C203.1,73.4,217.9,73.4,217.9,73.4z"/>
	</g>
	<g>
		<path class="st0" d="M259.9,84.1C259.9,84.1,259.9,84.1,259.9,84.1l0,7.9c0,0.4,0,0.8-0.1,1.2c0,0.1,0,0.2,0,0.3
			c0,0.4-0.1,0.8-0.2,1.1c0,0.1,0,0.1,0,0.2c-0.2,1.1-0.6,2.2-1.2,3.1c0,0-0.1,0.1-0.1,0.2c-0.2,0.3-0.4,0.5-0.6,0.8
			c0,0.1-0.1,0.1-0.2,0.2c-0.9,1.1-2.1,2-3.6,2.7c-0.1,0-0.2,0.1-0.3,0.1c-0.3,0.2-0.7,0.3-1.1,0.4c-0.1,0-0.1,0-0.2,0.1
			c-1.2,0.4-2.6,0.7-4.1,0.9c-0.1,0-0.1,0-0.2,0c-0.5,0-1,0.1-1.5,0.1c-0.1,0-0.3,0-0.4,0c-0.5,0-1,0-1.6,0h-8.3
			c-5.1,0.1-9-0.9-11.6-2.8c-0.1-0.1-0.2-0.2-0.4-0.3c-0.2-0.2-0.4-0.3-0.6-0.5c-0.2-0.2-0.3-0.3-0.5-0.5c-0.1-0.1-0.3-0.3-0.4-0.4
			c-0.2-0.2-0.3-0.5-0.5-0.7c-0.1-0.1-0.1-0.2-0.2-0.3c-0.2-0.3-0.3-0.6-0.5-0.9c0-0.1-0.1-0.2-0.1-0.3c-0.1-0.3-0.3-0.7-0.4-1
			c0-0.1,0-0.1-0.1-0.2c-0.1-0.4-0.2-0.8-0.3-1.2c0,0,0-0.1,0-0.1c-0.1-0.4-0.1-0.9-0.2-1.3c0,0,0,0,0,0l0-7.8c0-0.4,0-0.8,0.1-1.2
			c0-0.1,0-0.2,0-0.3c0-0.4,0.1-0.8,0.2-1.1c0-0.1,0-0.1,0-0.2c0.2-1.1,0.6-2.2,1.2-3.1c0-0.1,0.1-0.1,0.1-0.2
			c0.2-0.3,0.4-0.5,0.6-0.8c0-0.1,0.1-0.1,0.2-0.2c0.9-1.1,2.1-2,3.6-2.7c0.1,0,0.2-0.1,0.3-0.1c0.3-0.2,0.7-0.3,1.1-0.4
			c0.1,0,0.1,0,0.2-0.1c1.2-0.4,2.6-0.7,4.1-0.9c0.1,0,0.1,0,0.2,0c0.5,0,1-0.1,1.5-0.1c0.1,0,0.3,0,0.4,0c0.5,0,1,0,1.6,0l8.3,0v0
			c5.1-0.1,9,0.9,11.6,2.8c0.1,0.1,0.2,0.2,0.4,0.3c0.2,0.2,0.4,0.3,0.6,0.5c0.2,0.2,0.3,0.3,0.5,0.5c0.1,0.1,0.3,0.3,0.4,0.4
			c0.2,0.2,0.3,0.5,0.5,0.7c0.1,0.1,0.1,0.2,0.2,0.3c0.2,0.3,0.3,0.6,0.5,0.9c0,0.1,0.1,0.2,0.1,0.3c0.1,0.3,0.3,0.7,0.4,1
			c0,0.1,0,0.1,0.1,0.2c0.1,0.4,0.2,0.8,0.3,1.2c0,0,0,0.1,0,0.1C259.9,83.2,259.9,83.6,259.9,84.1L259.9,84.1z M250.8,91
			c0-0.2,0-0.4,0-0.6l0-4.1c0,0,0,0,0,0c0-0.3,0-0.5-0.1-0.7c0,0,0,0,0-0.1c0-0.2-0.1-0.4-0.1-0.6c0,0,0-0.1,0-0.1
			c-0.1-0.2-0.1-0.4-0.2-0.5c0,0,0-0.1-0.1-0.1c-0.1-0.2-0.2-0.3-0.3-0.5c0-0.1-0.1-0.1-0.1-0.2c-0.1-0.1-0.2-0.3-0.3-0.4
			c-0.1-0.1-0.1-0.1-0.2-0.2c-0.1-0.1-0.2-0.2-0.3-0.3c-0.1-0.1-0.2-0.2-0.3-0.3c-0.1,0-0.1-0.1-0.2-0.2c-1.4-1-3.5-1.5-6.1-1.5l0,0
			h-4.4c-0.3,0-0.6,0-0.8,0c-0.1,0-0.1,0-0.2,0c-0.3,0-0.5,0-0.8,0.1c0,0-0.1,0-0.1,0c-0.8,0.1-1.5,0.3-2.2,0.5c0,0-0.1,0-0.1,0
			c-0.2,0.1-0.4,0.1-0.6,0.2c0,0-0.1,0-0.1,0.1c-0.8,0.4-1.4,0.9-1.9,1.5c0,0-0.1,0.1-0.1,0.1c-0.1,0.1-0.2,0.3-0.3,0.4
			c0,0,0,0.1,0,0.1c-0.3,0.5-0.5,1-0.6,1.6c0,0,0,0.1,0,0.1c0,0.2-0.1,0.4-0.1,0.6c0,0.1,0,0.1,0,0.2c0,0.2,0,0.4,0,0.6l0,4.1
			c0,0,0,0,0,0c0,0.3,0,0.5,0.1,0.7c0,0,0,0,0,0.1c0,0.2,0.1,0.4,0.1,0.6c0,0,0,0.1,0,0.1c0.1,0.2,0.1,0.4,0.2,0.6
			c0,0,0,0.1,0.1,0.1c0.1,0.2,0.2,0.3,0.3,0.5c0,0.1,0.1,0.1,0.1,0.2c0.1,0.1,0.2,0.3,0.3,0.4c0.1,0.1,0.1,0.1,0.2,0.2
			c0.1,0.1,0.2,0.2,0.3,0.3c0.1,0.1,0.2,0.2,0.3,0.3c0.1,0,0.1,0.1,0.2,0.2c1.4,1,3.5,1.5,6.1,1.5h4.4c0.3,0,0.6,0,0.8,0
			c0.1,0,0.1,0,0.2,0c0.3,0,0.5,0,0.8-0.1c0,0,0.1,0,0.1,0c0.8-0.1,1.5-0.3,2.2-0.5c0,0,0.1,0,0.1,0c0.2-0.1,0.4-0.1,0.6-0.2
			c0,0,0.1,0,0.1-0.1c0.8-0.4,1.4-0.9,1.9-1.5c0,0,0.1-0.1,0.1-0.1c0.1-0.1,0.2-0.3,0.3-0.4c0,0,0-0.1,0-0.1c0.3-0.5,0.5-1,0.6-1.6
			c0,0,0-0.1,0-0.1c0-0.2,0.1-0.4,0.1-0.6C250.7,91.1,250.8,91,250.8,91L250.8,91z"/>
	</g>
	<g>
		<path class="st0" d="M301.1,84.1C301.1,84.1,301.1,84.1,301.1,84.1l0,7.9c0,0.4,0,0.8-0.1,1.2c0,0.1,0,0.2,0,0.3
			c0,0.4-0.1,0.8-0.2,1.1c0,0.1,0,0.1,0,0.2c-0.2,1.1-0.6,2.2-1.2,3.1c0,0-0.1,0.1-0.1,0.2c-0.2,0.3-0.4,0.5-0.6,0.8
			c0,0.1-0.1,0.1-0.2,0.2c-0.9,1.1-2.1,2-3.6,2.7c-0.1,0-0.2,0.1-0.3,0.1c-0.3,0.2-0.7,0.3-1.1,0.4c-0.1,0-0.1,0-0.2,0.1
			c-1.2,0.4-2.6,0.7-4.1,0.9c-0.1,0-0.1,0-0.2,0c-0.5,0-1,0.1-1.5,0.1c-0.1,0-0.3,0-0.4,0c-0.5,0-1,0-1.6,0h-8.3
			c-5.1,0.1-9-0.9-11.6-2.8c-0.1-0.1-0.2-0.2-0.4-0.3c-0.2-0.2-0.4-0.3-0.6-0.5c-0.2-0.2-0.3-0.3-0.5-0.5c-0.1-0.1-0.2-0.3-0.4-0.4
			c-0.2-0.2-0.3-0.5-0.5-0.7c-0.1-0.1-0.1-0.2-0.2-0.3c-0.2-0.3-0.3-0.6-0.5-0.9c0-0.1-0.1-0.2-0.1-0.3c-0.1-0.3-0.3-0.7-0.4-1
			c0-0.1,0-0.1-0.1-0.2c-0.1-0.4-0.2-0.8-0.3-1.2c0,0,0-0.1,0-0.1c-0.1-0.4-0.1-0.9-0.2-1.3c0,0,0,0,0,0l0-7.8c0-0.4,0-0.8,0.1-1.2
			c0-0.1,0-0.2,0-0.3c0-0.4,0.1-0.8,0.2-1.1c0-0.1,0-0.1,0-0.2c0.2-1.1,0.6-2.2,1.2-3.1c0-0.1,0.1-0.1,0.1-0.2
			c0.2-0.3,0.4-0.5,0.6-0.8c0-0.1,0.1-0.1,0.2-0.2c0.9-1.1,2.1-2,3.6-2.7c0.1,0,0.2-0.1,0.3-0.1c0.3-0.2,0.7-0.3,1.1-0.4
			c0.1,0,0.1,0,0.2-0.1c1.2-0.4,2.6-0.7,4.1-0.9c0.1,0,0.1,0,0.2,0c0.5,0,1-0.1,1.5-0.1c0.1,0,0.2,0,0.4,0c0.5,0,1,0,1.6,0l8.3,0v0
			c5.1-0.1,9,0.9,11.6,2.8c0.1,0.1,0.2,0.2,0.4,0.3c0.2,0.2,0.4,0.3,0.6,0.5c0.2,0.2,0.3,0.3,0.5,0.5c0.1,0.1,0.3,0.3,0.4,0.4
			c0.2,0.2,0.3,0.5,0.5,0.7c0.1,0.1,0.1,0.2,0.2,0.3c0.2,0.3,0.3,0.6,0.5,0.9c0,0.1,0.1,0.2,0.1,0.3c0.1,0.3,0.3,0.7,0.4,1
			c0,0.1,0,0.1,0.1,0.2c0.1,0.4,0.2,0.8,0.3,1.2c0,0,0,0.1,0,0.1C301.1,83.2,301.1,83.6,301.1,84.1L301.1,84.1z M292,91
			c0-0.2,0-0.4,0-0.6l0-4.1c0,0,0,0,0,0c0-0.3,0-0.5-0.1-0.7c0,0,0,0,0-0.1c0-0.2-0.1-0.4-0.1-0.6c0,0,0-0.1,0-0.1
			c-0.1-0.2-0.1-0.4-0.2-0.5c0,0,0-0.1-0.1-0.1c-0.1-0.2-0.2-0.3-0.3-0.5c0-0.1-0.1-0.1-0.1-0.2c-0.1-0.1-0.2-0.3-0.3-0.4
			c-0.1-0.1-0.1-0.1-0.2-0.2c-0.1-0.1-0.2-0.2-0.3-0.3c-0.1-0.1-0.2-0.2-0.3-0.3c-0.1,0-0.1-0.1-0.2-0.2c-1.4-1-3.5-1.5-6.1-1.5l0,0
			h-4.4c-0.3,0-0.6,0-0.8,0c-0.1,0-0.1,0-0.2,0c-0.3,0-0.5,0-0.8,0.1c0,0-0.1,0-0.1,0c-0.8,0.1-1.5,0.3-2.2,0.5c0,0-0.1,0-0.1,0
			c-0.2,0.1-0.4,0.1-0.6,0.2c0,0-0.1,0-0.1,0.1c-0.8,0.4-1.4,0.9-1.9,1.5c0,0-0.1,0.1-0.1,0.1c-0.1,0.1-0.2,0.3-0.3,0.4
			c0,0,0,0.1,0,0.1c-0.3,0.5-0.5,1-0.6,1.6c0,0,0,0.1,0,0.1c0,0.2-0.1,0.4-0.1,0.6c0,0.1,0,0.1,0,0.2c0,0.2,0,0.4,0,0.6l0,4.1
			c0,0,0,0,0,0c0,0.3,0,0.5,0.1,0.7c0,0,0,0,0,0.1c0,0.2,0.1,0.4,0.1,0.6c0,0,0,0.1,0,0.1c0.1,0.2,0.1,0.4,0.2,0.6
			c0,0,0,0.1,0.1,0.1c0.1,0.2,0.2,0.3,0.3,0.5c0,0.1,0.1,0.1,0.1,0.2c0.1,0.1,0.2,0.3,0.3,0.4c0.1,0.1,0.1,0.1,0.2,0.2
			c0.1,0.1,0.2,0.2,0.3,0.3c0.1,0.1,0.2,0.2,0.3,0.3c0.1,0,0.1,0.1,0.2,0.2c1.4,1,3.5,1.5,6.1,1.5h4.4c0.3,0,0.6,0,0.8,0
			c0.1,0,0.1,0,0.2,0c0.3,0,0.5,0,0.8-0.1c0,0,0.1,0,0.1,0c0.8-0.1,1.5-0.3,2.2-0.5c0,0,0.1,0,0.1,0c0.2-0.1,0.4-0.1,0.6-0.2
			c0,0,0.1,0,0.1-0.1c0.8-0.4,1.4-0.9,1.9-1.5c0,0,0.1-0.1,0.1-0.1c0.1-0.1,0.2-0.3,0.3-0.4c0,0,0-0.1,0-0.1c0.3-0.5,0.5-1,0.6-1.6
			c0,0,0-0.1,0-0.1c0-0.2,0.1-0.4,0.1-0.6C291.9,91.1,291.9,91,292,91L292,91z"/>
	</g>
	<g>
		<path class="st0" d="M313.4,103.6h-9.2V73.4h9.2l0,0h14.8c0.5,0,1.1,0,1.6,0c0.1,0,0.3,0,0.4,0c0.5,0,1,0.1,1.5,0.1
			c0.1,0,0.1,0,0.2,0c1.5,0.2,2.9,0.5,4.1,0.9c0.1,0,0.1,0,0.2,0.1c0.4,0.1,0.7,0.3,1.1,0.4c0.1,0,0.2,0.1,0.3,0.1
			c1.5,0.7,2.6,1.6,3.6,2.7c0.1,0.1,0.1,0.1,0.2,0.2c0.2,0.3,0.4,0.5,0.6,0.8c0,0,0.1,0.1,0.1,0.2c0.5,0.9,0.9,2,1.2,3.1
			c0,0.1,0,0.1,0,0.2c0.1,0.4,0.1,0.7,0.2,1.1c0,0.1,0,0.2,0,0.3c0,0.4,0.1,0.8,0.1,1.2l0,7.8c0,0,0,0,0,0c0,0.5-0.1,0.9-0.2,1.3
			c0,0,0,0.1,0,0.1c-0.1,0.4-0.2,0.8-0.3,1.2c0,0.1,0,0.1-0.1,0.2c-0.1,0.4-0.2,0.7-0.4,1c0,0.1-0.1,0.2-0.1,0.3
			c-0.1,0.3-0.3,0.6-0.5,0.9c-0.1,0.1-0.1,0.2-0.2,0.3c-0.2,0.3-0.3,0.5-0.5,0.7c-0.1,0.1-0.3,0.3-0.4,0.4c-0.2,0.2-0.3,0.4-0.5,0.5
			c-0.2,0.2-0.4,0.4-0.6,0.5c-0.1,0.1-0.2,0.2-0.4,0.3c-2.6,1.9-6.5,2.9-11.6,2.8L313.4,103.6L313.4,103.6z M326.1,80.5h-12.8v16
			h12.5c2.7,0,4.8-0.5,6.1-1.5c0.1,0,0.1-0.1,0.2-0.2c0.1-0.1,0.2-0.2,0.3-0.3c0.1-0.1,0.2-0.2,0.3-0.3c0.1-0.1,0.1-0.1,0.2-0.2
			c0.1-0.1,0.2-0.3,0.3-0.4c0-0.1,0.1-0.1,0.1-0.2c0.1-0.2,0.2-0.3,0.3-0.5c0,0,0-0.1,0.1-0.1c0.1-0.2,0.1-0.4,0.2-0.5
			c0,0,0-0.1,0-0.1c0.1-0.2,0.1-0.4,0.1-0.6c0,0,0,0,0-0.1c0-0.2,0.1-0.5,0.1-0.7c0,0,0,0,0,0l0-4.1c0-0.2,0-0.4,0-0.6
			c0-0.1,0-0.1,0-0.2c0-0.2,0-0.4-0.1-0.6c0,0,0-0.1,0-0.1c-0.1-0.6-0.3-1.2-0.6-1.6c0,0,0-0.1,0-0.1c-0.1-0.2-0.2-0.3-0.3-0.4
			c0,0-0.1-0.1-0.1-0.1c-0.5-0.6-1.1-1.1-1.9-1.5c0,0-0.1,0-0.1-0.1c-0.2-0.1-0.4-0.2-0.6-0.2c0,0-0.1,0-0.1,0
			c-0.6-0.2-1.4-0.4-2.2-0.5c0,0-0.1,0-0.1,0c-0.2,0-0.5,0-0.8-0.1c-0.1,0-0.1,0-0.2,0C326.7,80.5,326.4,80.5,326.1,80.5L326.1,80.5
			z"/>
	</g>
	<g>
		<path class="st0" d="M380.9,97.3v6.2h-34.6V73.4h9.2v23.9C355.5,97.3,380.9,97.3,380.9,97.3z"/>
	</g>
	<g>
		<path class="st0" d="M382.4,103.6V73.4H417v6.2h-25.4v5.7h23.5v6.2h-12.5h-11v5.7H417v6.2L382.4,103.6L382.4,103.6z"/>
	</g>
	<g>
		<path class="st0" d="M217.9,122v30.2h-9.2v-22.4l-10.4,19.4l-1.6,3l0,0h-3.3h-3.3l0,0l-1.6-3l-10.4-19.4v22.4H169V122h14.7
			l9.7,18.1l9.7-18.1H217.9z"/>
	</g>
	<g>
		<path class="st0" d="M228.6,152.2h-9.7L235,122h12.9l16.1,30.2h-9.7l-2.9-5.5h-19.9L228.6,152.2z M241.5,128.1l-6.6,12.3h13.2
			L241.5,128.1L241.5,128.1z"/>
	</g>
	<g>
		<path class="st0" d="M257.8,122h37.7v6.2h-14.3v24h-9.2v-24h-14.3L257.8,122L257.8,122z"/>
	</g>
	<g>
		<path class="st0" d="M297,152.2V122h34.6v6.2h-25.4v5.7h23.5v6.2h-12.5h-11v5.7h25.4v6.2L297,152.2L297,152.2z"/>
	</g>
</g>
</svg>
