<?xml version="1.0" encoding="utf-8"?>
<!-- Generator: Adobe Illustrator 28.0.0, SVG Export Plug-In . SVG Version: 6.00 Build 0)  -->
<svg version="1.1" id="Layer_1" xmlns="http://www.w3.org/2000/svg" xmlns:xlink="http://www.w3.org/1999/xlink" x="0px" y="0px"
	 viewBox="0 0 160 160" style="enable-background:new 0 0 160 160;" xml:space="preserve">
<style type="text/css">
	.st0{fill:#F46E3A;}
	.st1{fill:#333333;}
	.st2{fill:#FFFFFF;}
</style>
<g>
	<g>
		<g>
			<path class="st0" d="M8.8,80C8.8,28.2,28.2,8.8,80,8.8s71.2,19.4,71.2,71.2s-19.4,71.2-71.2,71.2S8.8,131.8,8.8,80"/>
		</g>
	</g>
	<g>
		<path class="st1" d="M56.5,121.4c-2.5,0-5,0-7.5,0c-0.5,0-0.6-0.1-0.6-0.6c0-1.1,0-1.1-1.1-1.1c-1,0-0.9,0.1-0.9-0.9
			c0-0.9,0.1-0.8-0.8-0.8c-0.3,0-0.5,0-0.8,0c-0.4,0-0.5-0.1-0.5-0.5c0-0.8,0-1.5,0-2.3c0-0.4-0.1-0.5-0.5-0.5c-0.4,0-0.8,0-1.2,0
			c-0.3,0-0.4-0.1-0.4-0.4c0-1.1,0-2.3,0-3.4c0-3.5,0-7,0-10.4c0-0.6,0-0.6,0.6-0.6c0.3,0,0.7,0,1,0c0.3,0,0.4-0.1,0.4-0.4
			c0-0.8,0-1.7,0-2.5c0-0.3,0.1-0.5,0.4-0.4c0.4,0,0.8,0,1.2,0c0.3,0,0.4-0.1,0.4-0.4c0-0.3,0-0.5,0-0.8c0-0.4,0.1-0.5,0.5-0.5
			c0.3,0,0.7,0,1,0c0.3,0,0.5-0.1,0.5-0.4c0-1.1,0-1.1,1.2-1.1c1.5,0,2.9,0,4.4,0c0.4,0,0.5-0.1,0.5-0.5c0-1.2,0-1.2,1.2-1.2
			c0.8,0,1.6,0,2.4,0c0.3,0,0.5,0.1,0.5,0.5c0,1.2,0,1.2,1.3,1.2c1.4,0,2.9,0,4.3,0c0.4,0,0.5,0.1,0.5,0.5c0,1.1,0,1.1,1.1,1.1
			c1.1,0,0.9-0.1,0.9,1c0,0.7,0,0.7,0.7,0.7c1.2,0,1.2,0,1.2,1.2c0,0.6,0,1.2,0,1.7c0,0.3,0.1,0.4,0.4,0.4c0.4,0,0.8,0,1.2,0
			c0.4,0,0.5,0.1,0.5,0.5c0,0.8,0,1.6,0,2.4c0,3.8,0,7.6,0,11.4c0,0.6,0,0.6-0.6,0.6c-0.5,0-1-0.2-1.3,0.1c-0.3,0.3-0.1,0.9-0.1,1.3
			c0,0.5,0,0.9,0,1.3c0,0.4-0.1,0.5-0.5,0.5c-0.3,0-0.7,0-1,0c-0.3,0-0.5,0.1-0.5,0.4c0,1.2,0,1.2-1.3,1.2c-0.1,0-0.3,0-0.4,0
			c-0.2,0-0.3,0.1-0.3,0.3c0,0.3,0,0.6,0,0.8c0,0.4-0.1,0.5-0.5,0.5c-1.9,0-3.8,0-5.7,0C57.8,121.4,57.2,121.4,56.5,121.4z"/>
	</g>
	<g>
		<path class="st1" d="M67.4,49.8c-4.1,0-8.3,0-12.4,0c-0.6,0-0.7,0-0.7-0.6c0-1.3,0-2.6,0-3.9c0-0.4,0.1-0.5,0.5-0.5
			c0.3,0,0.6,0,0.9,0c0.4,0,0.5-0.1,0.5-0.5c0-1.2,0-2.5,0-3.7c0-0.5,0.1-0.7,0.6-0.6c0.3,0,0.7,0,1,0c0.4,0,0.5-0.1,0.5-0.5
			c0-0.3,0-0.6,0-0.8c0-0.3,0.1-0.4,0.4-0.4c0.1,0,0.2,0,0.3,0c6.3,0,12.5,0,18.8,0c0.7,0,0.7,0,0.7,0.7c0,1,0,1,1,1
			c1.2,0,1-0.2,1,1c0,2.7,0,5.4,0,8.1c0,0.7,0,0.7-0.7,0.7C75.7,49.8,71.5,49.8,67.4,49.8z"/>
	</g>
	<g>
		<path class="st1" d="M118.1,80.2c-3.2,0-6.3,0-9.5,0c-0.5,0-0.6-0.1-0.6-0.6c0-1.1,0-1.1-1.1-1.1c-1,0-0.9,0.1-0.9-0.9
			c0-1.8,0-3.5,0-5.3c0-0.4,0.1-0.6,0.5-0.6c0.3,0,0.7,0,1,0c0.4,0,0.5-0.1,0.4-0.5c0-0.3,0-0.6,0-0.8c0-0.3,0.1-0.4,0.4-0.4
			c0.1,0,0.2,0,0.3,0c6.3,0,12.6,0,18.8,0c0.7,0,0.7,0,0.7,0.7c0,1,0,1,1,1c1.2,0,1-0.2,1,1c0,1.7,0,3.4,0,5.1
			c0,0.4-0.1,0.6-0.5,0.5c-0.4,0-0.7,0-1.1,0c-0.3,0-0.5,0.1-0.5,0.4c0,1.2,0,1.2-1.3,1.2C124,80.2,121,80.2,118.1,80.2z"/>
	</g>
	<g>
		<path class="st2" d="M119.2,98.4c0,0.1,0,10.6,0,10.8c0,0.1,0,0.1,0,0.2c0,0.2,0,0.2-0.2,0.2c-0.6,0-1.2,0-1.8,0
			c-0.2,0-0.2,0-0.2,0.2c0,1.3,0,2.7,0,4c0,0.3,0,0.3-0.3,0.3c-0.6,0-1.2,0-1.8,0c-0.2,0-0.2,0-0.2,0.2c0,0.6,0,1.3,0,1.9
			c0,0.2,0,0.2-0.2,0.2c-0.6,0-1.2,0-1.8,0c-0.3,0-0.3,0-0.3,0.3c0,0.6,0,1.2,0,1.8c0,0.2,0,0.2-0.2,0.2c-1.3,0-2.7,0-4,0
			c-0.3,0-0.3,0-0.3,0.3c0,0.6,0,1.1,0,1.7c0,0.3,0,0.3-0.3,0.3c-1.1,0-6.6,0-7.7,0c-2.5,0-5.1,0-7.7,0c-0.3,0-0.3,0-0.3-0.3
			c0-0.6,0-1.2,0-1.8c0-0.2,0-0.2-0.2-0.2c-1.3,0-2.7,0-4,0c-0.3,0-0.3,0-0.3-0.3c0-0.6,0-1.1,0-1.7c0-0.3,0-0.3-0.3-0.3
			c-0.6,0-1.2,0-1.8,0c-0.2,0-0.2,0-0.2-0.2c0-0.6,0-1.2,0-1.8c0-0.2,0-0.2-0.2-0.2c-0.6,0-1.2,0-1.8,0c-0.2,0-0.2,0-0.2-0.2
			c0-0.6,0-1.2,0-1.8c0-0.3,0-0.3-0.3-0.3c-0.6,0-1.1,0-1.7,0c-0.3,0-0.3,0-0.3-0.3c0-2.1,0-4.2,0-6.2c0-0.3,0-0.3-0.3-0.3
			c-0.6,0-1.2,0-1.7,0c-0.2,0-0.2,0-0.2,0.2c0,0.6,0,1.2,0,1.8c0,0.2,0,0.2-0.2,0.2c-0.6,0-1.2,0-1.8,0c-0.2,0-0.2,0-0.2,0.2
			c0,0.6,0,1.2,0,1.8c0,0.2,0,0.2-0.2,0.2c-0.6,0-1.2,0-1.8,0c-0.2,0-0.2,0-0.2,0.2c0,0.6,0,1.2,0,1.8c0,0.3,0,0.2-0.2,0.2
			c-2.1,0-4.1,0-6.2,0c-0.1,0-0.1,0-0.2,0c-0.2,0-0.2,0-0.2,0.2c0,0.6,0,1.2,0,1.8c0,0.3,0,0.3-0.3,0.3c-0.6,0-1.2,0-1.8,0
			c-0.2,0-0.2,0-0.2,0.2c0,0.6,0,1.3,0,1.9c0,0.2,0,0.2-0.2,0.2c-0.6,0-1.2,0-1.8,0c-0.3,0-0.3,0-0.3,0.3c0,0.6,0,1.2,0,1.8
			c0,0.2,0,0.2-0.2,0.2c-1.3,0-7.3,0-8.5,0c0,0-0.1,0-0.1,0c-0.2,0-0.2,0-0.2-0.2c0-0.6,0-1.2,0-1.8c0-0.2,0-0.2-0.3-0.2
			c-1.3,0-2.6,0-3.9,0c0,0-0.1,0-0.1,0c-0.2,0-0.2,0-0.2-0.2c0-0.6,0-1.2,0-1.8c0-0.3,0-0.3-0.3-0.3c-1.3,0-2.7,0-4,0
			c-0.3,0-0.3,0-0.3-0.3c0-0.6,0-1.2,0-1.8c0-0.2,0-0.2-0.2-0.2c-0.6,0-1.2,0-1.8,0c-0.3,0-0.3,0-0.3-0.3c0-1.3,0-2.7,0-4
			c0-0.3,0-0.3-0.3-0.3c-0.6,0-1.2,0-1.8,0c-0.2,0-0.2,0-0.2-0.2c0-1.7,0-3.4,0-5.1c0-0.4,0-0.8,0-1.3c0-0.2,0-0.2,0.2-0.2
			c0.6,0,1.2,0,1.8,0c0.3,0,0.3,0,0.3-0.2c0-0.6,0-10.3,0-10.8c0-0.3,0-0.3,0.3-0.3c0.6,0,1.2,0,1.8,0c0.2,0,0.2,0,0.2-0.2
			c0-1.2,0-2.4,0-3.6c0-2.4,0-4.8,0-7.2c0-0.3,0-0.3,0.3-0.3c0.6,0,1.2,0,1.8,0c0.2,0,0.2,0,0.2-0.2c0-0.6,0-1.2,0-1.8
			c0-0.2,0-0.2,0.2-0.2c1.4,0,2.7,0,4.1,0c0.2,0,0.2,0,0.2,0.2c0,0.6,0,1.2,0,1.8c0,0.2,0,0.2,0.2,0.2c0.6,0,1.2,0,1.8,0
			c0.2,0,0.2,0,0.2,0.2c0,0.6,0,1.2,0,1.8c0,0.2,0,0.2,0.2,0.2c0.6,0,1.2,0,1.8,0c0.3,0,0.3,0,0.3,0.3c0,0.6,0,1.2,0,1.8
			c0,0.2,0,0.2,0.2,0.2c0.6,0,1.3,0,1.9,0c0.2,0,0.2,0,0.2,0.2c0,1.3,0,2.7,0,4c0,0.3,0,0.3,0.3,0.3c0.6,0,1.1,0,1.7,0
			c0.3,0,0.3,0,0.3,0.3c0,0.6,0,1.2,0,1.8c0,0.2,0,0.2,0.2,0.2c0.6,0,1.3,0,1.9,0c0.2,0,0.2,0,0.2-0.2c0-2.1,0-4.3,0-6.4
			c0-0.2,0-0.2-0.2-0.2c-0.6,0-1.2,0-1.8,0c-0.3,0-0.3,0-0.3-0.3c0-0.6,0-1.2,0-1.8c0-0.2,0-0.2-0.2-0.2c-0.6,0-1.2,0-1.8,0
			c-0.2,0-0.2,0-0.2-0.2c0-1.3,0-2.7,0-4c0-0.3,0-0.3-0.3-0.3c-0.6,0-1.2,0-1.7,0c-0.3,0-0.2,0-0.2-0.2c0-0.6,0-1.2,0-1.8
			c0-0.2,0-0.2-0.2-0.2c-1.3,0-2.7,0-4,0c-0.3,0-0.3,0-0.3-0.3c0-0.6,0-1.2,0-1.8c0-0.2,0-0.2-0.2-0.2c-0.6,0-1.2,0-1.8,0
			c-0.3,0-0.3,0-0.3-0.3c0-0.6,0-1.2,0-1.8c0-0.2,0-0.2-0.2-0.2c-0.6,0-1.2,0-1.8,0c-0.2,0-0.2,0-0.2-0.2c0-0.6,0-1.2,0-1.8
			c0-0.2,0-0.2-0.3-0.2c-0.6,0-1.2,0-1.8,0c-0.3,0-0.2,0-0.2-0.2c0-0.6,0-1.2,0-1.8c0-0.2,0-0.2-0.2-0.2c-0.6,0-1.2,0-1.8,0
			c-0.2,0-0.2,0-0.2-0.2c0-1.3,0-2.7,0-4c0-0.3,0-0.3-0.3-0.3c-0.6,0-1.1,0-1.7,0c-0.3,0-0.3,0-0.3-0.3c0-1.2,0-5.1,0-6.2
			c0-0.1,0-0.1,0-0.2c0-0.2,0-0.2,0.2-0.2c0.3,0,0.7,0,1,0c0.3,0,0.6,0,0.9,0c0.2,0,0.2,0,0.2-0.2c0-0.8,0-1.5,0-2.3
			c0-0.6,0-1.2,0-1.8c0-0.3,0-0.3,0.3-0.3c0.6,0,1.2,0,1.8,0c0.2,0,0.2,0,0.2-0.2c0-0.6,0-1.2,0-1.8c0-0.2,0-0.2,0.2-0.2
			c0.6,0,1.2,0,1.8,0c0.3,0,0.3,0,0.3-0.3c0-0.6,0-1.2,0-1.8c0-0.2,0-0.2,0.2-0.2c0.6,0,1.2,0,1.8,0c0.2,0,0.2,0,0.2-0.2
			c0-0.6,0-1.2,0-1.8c0-0.2,0-0.2,0.3-0.2c2.1,0,4.2,0,6.3,0c0.3,0,0.3,0,0.3-0.3c0-0.6,0-1.2,0-1.8c0-0.2,0-0.2,0.2-0.2
			c2.1,0,4.3,0,6.4,0c0.2,0,0.2,0,0.2,0.2c0,0.6,0,1.2,0,1.8c0,0.3,0,0.3,0.3,0.3c2,0,4.1,0,6.1,0c0.3,0,0.4,0.1,0.4,0.4
			c0,0.6,0,1.1,0,1.7c0,0.2,0,0.2,0.2,0.2c0.6,0,1.2,0,1.8,0c0.2,0,0.2,0,0.2,0.2c0,0.6,0,1.2,0,1.8c0,0.3,0,0.3,0.3,0.3
			c0.6,0,1.2,0,1.8,0c0.3,0,0.3,0,0.3,0.3v13c0,0.1,0,0.1,0,0.2c0,0.2,0,0.2-0.2,0.2c-0.6,0-1.2,0-1.8,0c-0.3,0-0.3,0-0.3,0.3
			c0,2.1,0,4.1,0,6.2c0,0.3,0,0.3-0.3,0.3c-0.6,0-1.2,0-1.8,0c-0.2,0-0.2,0-0.2,0.2c0,0.4,0,0.8,0,1.2c0,2.5,0,4.9,0,7.4
			c0,0.3,0,0.3,0.3,0.3c0.6,0,1.2,0,1.7,0c0.3,0,0.3,0,0.3,0.2c0,0.6,0,1.2,0,1.8c0,0.2,0,0.2,0.2,0.2c2.9,0,5.8,0,8.6,0
			c0.2,0,0.2,0,0.2-0.2c0-2.1,0-4.2,0-6.4c0,0,0-0.1,0-0.1c0-0.1,0-0.1-0.1-0.1s-0.1,0-0.2,0c-0.6,0-1.2,0-1.8,0
			c-0.2,0-0.2,0-0.2-0.2c0,0,0-0.1,0-0.1c0-4.3,0-8.6,0-13c0-0.4,0-0.3,0.3-0.3c0.6,0,1.2,0,1.7,0c0.2,0,0.2,0,0.2-0.2
			c0-2.1,0-4.2,0-6.3c0-0.3,0-0.3,0.3-0.3c0.6,0,1.2,0,1.7,0c0.2,0,0.2,0,0.2-0.2c0-0.6,0-1.2,0-1.8c0-0.2,0-0.2,0.2-0.2
			c0.6,0,1.2,0,1.8,0c0.2,0,0.2,0,0.2-0.3c0-0.6,0-1.2,0-1.8c0-0.2,0-0.2,0.2-0.2c0.6,0,1.2,0,1.8,0c0.2,0,0.2,0,0.2-0.2
			c0-0.6,0-1.2,0-1.8c0-0.2,0-0.2,0.3-0.2c0.6,0,1.2,0,1.8,0c0.3,0,0.2,0,0.2-0.2c0-0.6,0-1.2,0-1.8c0-0.2,0-0.2,0.2-0.2
			c1.3,0,2.7,0,4,0c0.3,0,0.3,0,0.3-0.3c0-0.6,0-1.2,0-1.7c0-0.3,0-0.3,0.2-0.3c0.6,0,10.1,0,10.7,0c0.1,0,0.1,0,0.2,0
			c0.2,0,0.2,0,0.2,0.2c0,0.6,0,1.2,0,1.8c0,0.2,0,0.2,0.2,0.2c0.6,0,1.2,0,1.8,0c0.3,0,0.3,0,0.3,0.3c0,0.6,0,1.2,0,1.8
			c0,0.2,0,0.2,0.2,0.2c0.6,0,1.2,0,1.8,0c0.2,0,0.2,0,0.2,0.2c0,0.6,0,1.2,0,1.8c0,0.2,0,0.2,0.2,0.2c0.6,0,1.2,0,1.8,0
			c0.3,0,0.3,0,0.3,0.3c0,0.6,0,1.2,0,1.8c0,0.2,0,0.2,0.2,0.2c0.6,0,1.2,0,1.8,0c0.2,0,0.2,0,0.2,0.2c0,0.5,0,1.1,0,1.6
			c0,4.6,0,9.2,0,13.7c0,0.4,0,0.3,0.3,0.3c0.6,0,1.2,0,1.7,0c0.2,0,0.2,0,0.2,0.2c0,2.2,0,4.4,0,6.7c0,1.4,0,2.8,0,4.1
			c0,0.3,0,0.3-0.3,0.3c-0.6,0-1.1,0-1.7,0c-0.2,0-0.2,0-0.2,0.2c0,1.3,0,2.6,0,3.9c0,0.1,0,0.1,0,0.2c0,0.2,0,0.2-0.2,0.2
			c-0.6,0-1.2,0-1.8,0c-0.3,0-0.3,0-0.3,0.3c0,0.6,0,1.2,0,1.8c0,0.2,0,0.2-0.2,0.2c-0.6,0-1.2,0-1.8,0c-0.2,0-0.2,0-0.2,0.2
			c0,0.6,0,1.2,0,1.8c0,0.2,0,0.2-0.2,0.2c-2.1,0-4.2,0-6.4,0c0,0-0.1,0-0.1,0c-0.1,0-0.1,0-0.1-0.1c0-0.1,0-0.1,0-0.2
			c0-0.6,0-1.2,0-1.8c0-0.2,0-0.2-0.2-0.2c-1.3,0-2.7,0-4,0c-0.3,0-0.3,0-0.3-0.3c0-0.6,0-1.2,0-1.8c0-0.2,0-0.2-0.2-0.2
			c-1.4,0-2.8,0-4.1,0c-0.2,0-0.2,0-0.2,0.2c0,1.4,0,2.8,0,4.1c0,0.2,0,0.2,0.2,0.2c0.6,0,1.3,0,1.9,0c0.2,0,0.2,0,0.2,0.2
			c0,0.6,0,1.2,0,1.8c0,0.3,0,0.2,0.2,0.2c3.6,0,7.2,0,10.8,0c0.4,0,0.3,0,0.3,0.3c0,0.6,0,1.1,0,1.7c0,0.3,0,0.2,0.2,0.2
			c1.3,0,2.7,0,4,0c0.3,0,0.3,0,0.3,0.3c0,0.6,0,1.2,0,1.8c0,0.2,0,0.2,0.2,0.2c0.6,0,1.2,0,1.8,0c0.3,0,0.3,0,0.3,0.3
			c0,0.6,0,1.2,0,1.8c0,0.2,0,0.2,0.2,0.2c0.6,0,1.3,0,1.9,0c0.2,0,0.2,0,0.2,0.2c0,1.3,0,2.7,0,4c0,0.3,0,0.3,0.3,0.3
			c0.6,0,1.2,0,1.8,0C119.2,98.2,119.2,98.2,119.2,98.4L119.2,98.4z M89.4,84.7c0.3,0,0.3,0,0.3-0.3c0-5.8,0-11.7,0-17.5
			c0-0.1,0-0.1,0-0.2c0-0.1,0-0.1-0.1-0.1c-0.1,0-0.1,0-0.2,0c-0.6,0-1.2,0-1.8,0c-0.2,0-0.2,0-0.2-0.2c0-0.4,0-0.8,0-1.2
			c0-0.3,0-0.5,0-0.8c0-0.1,0-0.2-0.2-0.1c0,0-0.1,0-0.1,0c-1.3,0-2.6,0-4,0c-0.3,0-0.3,0-0.3,0.3c0,5.9,0,11.8,0,17.6
			c0,0.7,0,1.4,0,2.2c0,0.3,0,0.3-0.3,0.3c-0.6,0-1.2,0-1.7,0c-0.2,0-0.2,0-0.2,0.2c0,0.6,0,1.2,0,1.8c0,0.2,0,0.2-0.2,0.2
			c-2.1,0-4.3,0-6.4,0c-0.2,0-0.2,0-0.2-0.2c0-0.6,0-1.2,0-1.8c0-0.3,0-0.3-0.3-0.3c-0.6,0-1.2,0-1.7,0c-0.2,0-0.2,0-0.2-0.2
			c0-0.6,0-1.2,0-1.8c0-0.2,0-0.2-0.2-0.2c-0.6,0-1.2,0-1.8,0c-0.3,0-0.3,0-0.3-0.3c0-1.3,0-2.7,0-4c0-0.3,0-0.3-0.3-0.3
			c-0.6,0-1.1,0-1.7,0c-0.3,0-0.3,0-0.3-0.3c0-3.3,0-8.3,0-11.6c0-2.8,0-5.5,0-8.3c0-0.2,0-0.2-0.2-0.2c-2.1,0-4.3,0-6.4,0
			c-0.2,0-0.2,0-0.2,0.2c0,0.6,0,1.1,0,1.7c0,0.1,0,0.2,0,0.3c0,0.1,0,0.1-0.1,0.1c-0.1,0-0.1,0-0.2,0c-0.6,0-1.2,0-1.8,0
			c-0.1,0-0.2,0-0.2,0.2c0,0.1,0,0.1,0,0.2v5.9c0,1.6,0,3.2,0,4.8c0,0.3,0,0.2,0.2,0.2c0.6,0,1.2,0,1.7,0c0.3,0,0.3,0,0.3,0.3
			c0,1.3,0,2.7,0,4c0,0.2,0,0.2,0.2,0.2c0.6,0,1.2,0,1.8,0c0.3,0,0.3,0,0.3,0.3c0,1.3,0,2.7,0,4c0,0.3,0,0.3,0.3,0.3
			c0.6,0,1.2,0,1.8,0c0.2,0,0.2,0,0.2,0.2c0,0.6,0,1.2,0,1.8c0,0.2,0,0.2,0.2,0.2c0.6,0,1.3,0,1.9,0c0.2,0,0.2,0,0.2,0.2
			c0,0.6,0,1.2,0,1.8c0,0.3,0,0.3,0.3,0.3c0.6,0,1.2,0,1.8,0c0.2,0,0.2,0,0.2,0.2c0,0.2,0,0.4,0,0.6c0,0.4,0,0.9,0,1.3
			c0,0.1,0,0.2,0.1,0.1c0,0,0.1,0,0.2,0c0.6,0,1.2,0,1.8,0c0.2,0,0.2,0,0.2,0.2c0,0.3,0,0.5,0,0.8c0,0.4,0,0.8,0,1.1
			c0,0.2,0,0.2,0.2,0.2c0,0,0.1,0,0.1,0c1.3,0,2.6,0,3.9,0c0.4,0,0.3,0,0.3,0.3c0,0.6,0,1.1,0,1.7c0,0.1,0,0.1,0,0.2
			c0,0.1,0,0.1,0.1,0.1c0.1,0,0.1,0,0.2,0c0.6,0,1.2,0,1.8,0c0.2,0,0.2,0,0.2,0.2c0,0.5,0,1,0,1.5c0,0.2,0,0.3,0,0.5
			c0,0.1,0,0.1,0.1,0.1c0,0,0.1,0,0.2,0c0.6,0,1.2,0,1.7,0c0.2,0,0.2,0,0.2,0.3c0,0.3,0,0.6,0,1c0,2.5,0,5,0,7.6
			c0,0.3,0,0.3,0.3,0.3c0.6,0,1.1,0,1.7,0c0.3,0,0.3,0,0.3-0.3c0-2.1,0-4.2,0-6.3c0-0.3,0-0.2,0.2-0.2c0.6,0,1.2,0,1.8,0
			c0.2,0,0.2,0,0.2-0.2c0-0.6,0-3.5,0-4.1c0-0.3,0-0.3,0.3-0.3c0.3,0,0.5,0,0.7,0c0.4,0,0.8,0,1.1,0c0.1,0,0.2,0,0.1-0.1
			c0,0,0-0.1,0-0.2v-3.5c0-0.9,0-1.8,0-2.8c0-0.2,0-0.2,0.2-0.2C88.3,84.6,88.8,84.6,89.4,84.7L89.4,84.7z"/>
	</g>
	<g>
		<path class="st1" d="M118.1,85.1c3.2,0,6.3,0,9.5,0c0.6,0,0.6,0,0.6,0.6c0,1,0,1,1,1c1,0,1,0,1,1.1c0,1.7,0,3.3,0,5
			c0,0.6,0,0.6-0.7,0.6c-1,0-1.9,0-2.9,0c-0.4,0-0.5,0.1-0.5,0.5c0,1.2,0,1.2-1.2,1.2c-4.8,0-9.5,0-14.3,0c-0.6,0-0.6,0-0.6-0.6
			c0-1,0-1-1.1-1c-0.8,0-1.6,0-2.5,0c-0.3,0-0.5-0.1-0.5-0.4c0-1.9,0-3.9,0-5.8c0-0.3,0.1-0.4,0.4-0.4c0.4,0,0.8,0,1.1,0
			c0.3,0,0.4-0.1,0.4-0.4c0-0.3,0-0.5,0-0.8c0-0.3,0.1-0.4,0.4-0.4c0.5,0,1.1,0,1.6,0C112.8,85.1,115.4,85.1,118.1,85.1z"/>
	</g>
</g>
</svg>
