<svg xmlns="http://www.w3.org/2000/svg" xmlns:xlink="http://www.w3.org/1999/xlink" id="Layer_1" x="0" y="0" version="1.1" viewBox="0 0 425.2 226.77" style="enable-background:new 0 0 425.2 226.77" xml:space="preserve"><style type="text/css">.st0{fill:#f48020}.st1{fill:#333}.st2{fill:#fff}</style><g><g><g><path d="M81.43,113.39c0-33.15,12.43-45.57,45.57-45.57s45.57,12.43,45.57,45.57s-12.43,45.57-45.57,45.57 S81.43,146.53,81.43,113.39" class="st0"/></g></g><g><path d="M111.96,139.9c-1.59,0-3.18-0.01-4.77,0.01c-0.3,0-0.39-0.09-0.39-0.39c0.02-0.69,0-0.69-0.68-0.69 c-0.62,0-0.56,0.07-0.56-0.55c-0.01-0.57,0.06-0.51-0.51-0.52c-0.16,0-0.32-0.01-0.48,0c-0.27,0.03-0.34-0.09-0.33-0.35 c0.02-0.49,0-0.97,0.01-1.46c0.01-0.23-0.08-0.3-0.3-0.29c-0.25,0.01-0.5-0.01-0.74,0.01c-0.21,0.01-0.28-0.08-0.28-0.28 c0.01-0.72,0-1.45,0-2.17c0-2.22,0-4.45,0-6.67c0-0.39,0-0.39,0.4-0.39c0.22,0,0.44-0.01,0.66,0c0.19,0.01,0.26-0.07,0.26-0.26 c-0.01-0.54,0-1.07,0-1.61c0-0.2,0.07-0.29,0.28-0.28c0.26,0.01,0.52-0.01,0.77,0c0.19,0.01,0.28-0.06,0.26-0.26 c-0.01-0.17,0.01-0.34,0-0.51c-0.02-0.23,0.06-0.33,0.3-0.31c0.22,0.02,0.44-0.01,0.66,0.01c0.21,0.01,0.3-0.05,0.3-0.28 c0.01-0.73,0.02-0.73,0.77-0.73c0.93,0,1.87-0.01,2.8,0c0.24,0,0.31-0.08,0.31-0.31c0-0.77,0.01-0.77,0.79-0.77 c0.51,0,1.01,0.01,1.52,0c0.22,0,0.29,0.08,0.29,0.3c0.01,0.78,0.02,0.78,0.81,0.78c0.91,0,1.83,0.01,2.74,0 c0.24,0,0.33,0.07,0.33,0.32c0,0.7,0.01,0.69,0.71,0.7c0.68,0,0.59-0.08,0.6,0.61c0,0.46,0,0.46,0.47,0.46 c0.78,0,0.78,0,0.78,0.78c0,0.37,0.01,0.74,0,1.1c-0.01,0.19,0.07,0.27,0.26,0.26c0.25-0.01,0.5,0.01,0.74-0.01 c0.23-0.01,0.32,0.07,0.31,0.31c-0.01,0.52,0,1.03,0,1.55c0,2.42,0,4.85,0,7.27c0,0.39,0,0.38-0.39,0.4 c-0.29,0.01-0.66-0.13-0.86,0.07c-0.18,0.19-0.05,0.55-0.06,0.84c-0.01,0.29-0.01,0.58,0,0.86c0.01,0.23-0.06,0.33-0.3,0.31 c-0.22-0.02-0.44,0.01-0.66-0.01c-0.21-0.01-0.3,0.05-0.3,0.28c-0.01,0.79-0.02,0.79-0.83,0.79c-0.09,0-0.18,0-0.27,0 c-0.15-0.01-0.22,0.07-0.21,0.22c0,0.18-0.01,0.36,0,0.54c0.02,0.25-0.08,0.33-0.32,0.32c-1.21-0.01-2.42,0-3.64,0 C112.8,139.9,112.38,139.9,111.96,139.9z" class="st1"/></g><g><path d="M118.93,94.07c-2.65,0-5.3,0-7.96,0c-0.41,0-0.42,0-0.42-0.4c0-0.82,0.01-1.65,0-2.47 c0-0.24,0.07-0.35,0.32-0.33c0.2,0.02,0.4-0.01,0.6,0.01c0.26,0.02,0.35-0.06,0.34-0.33c-0.02-0.79,0.01-1.59-0.01-2.38 c-0.01-0.29,0.07-0.43,0.38-0.39c0.22,0.02,0.44-0.01,0.65,0.01c0.23,0.02,0.3-0.08,0.29-0.3c-0.01-0.18,0-0.36,0-0.54 c-0.01-0.18,0.08-0.25,0.25-0.24c0.07,0,0.14,0,0.21,0c4,0,8.01,0,12.01,0c0.45,0,0.45,0,0.45,0.43c0,0.64,0,0.64,0.65,0.64 c0.76,0.01,0.66-0.11,0.66,0.66c0.01,1.74,0,3.48,0,5.21c0,0.42,0,0.42-0.43,0.42C124.25,94.07,121.59,94.07,118.93,94.07z" class="st1"/></g><g><path d="M151.37,113.51c-2.02,0-4.03-0.01-6.05,0.01c-0.3,0-0.4-0.08-0.39-0.38c0.02-0.69,0-0.69-0.68-0.69 c-0.63,0-0.56,0.07-0.56-0.55c0-1.12,0.01-2.24-0.01-3.36c0-0.26,0.07-0.39,0.35-0.36c0.21,0.02,0.42-0.01,0.62,0.01 c0.23,0.02,0.3-0.08,0.28-0.3c-0.01-0.18,0-0.36,0-0.54c-0.01-0.18,0.08-0.25,0.25-0.24c0.06,0,0.12,0,0.18,0 c4.02,0,8.04,0,12.06,0c0.42,0,0.42,0,0.43,0.42c0,0.65,0,0.64,0.64,0.65c0.77,0.01,0.66-0.1,0.67,0.65 c0.01,1.09,0,2.18,0.01,3.28c0,0.25-0.06,0.37-0.33,0.35c-0.23-0.02-0.46,0.01-0.68-0.01c-0.21-0.01-0.3,0.05-0.3,0.28 c-0.01,0.79-0.02,0.79-0.83,0.79C155.14,113.51,153.25,113.51,151.37,113.51z" class="st1"/></g><g><path d="M152.06,125.17c0,0.07,0,6.81,0,6.88c0,0.04,0,0.07,0,0.1c0,0.15,0,0.15-0.14,0.15c-0.39,0-0.78,0-1.17,0 c-0.13,0-0.14,0-0.14,0.14c0,0.86,0,1.72,0,2.57c0,0.2,0.03,0.18-0.18,0.18c-0.38,0-0.77,0-1.15,0c-0.11,0-0.12,0-0.12,0.12 c0,0.4,0,0.8,0,1.2c0,0.14,0,0.14-0.14,0.14c-0.38,0-0.76,0-1.14,0c-0.18,0-0.17-0.02-0.17,0.16c0,0.38,0,0.76,0,1.14 c0,0.15,0,0.15-0.15,0.15c-0.86,0-1.72,0-2.57,0c-0.2,0-0.18-0.02-0.18,0.18c0,0.36,0,0.73,0,1.09c0,0.19,0.02,0.17-0.18,0.17 c-0.68,0-4.22,0-4.9,0c-1.63,0-3.26,0-4.9,0c-0.2,0-0.18,0.02-0.18-0.17c0-0.38,0-0.76,0-1.14c0-0.14,0-0.14-0.14-0.14 c-0.86,0-1.72,0-2.57,0c-0.21,0-0.19,0.03-0.19-0.19c0-0.36,0-0.72,0-1.08c0-0.2,0.02-0.18-0.19-0.18c-0.38,0-0.75,0-1.12,0 c-0.14,0-0.14,0-0.14-0.13c0-0.39,0-0.79,0-1.18c0-0.13,0-0.13-0.13-0.13c-0.39,0-0.79,0-1.18,0c-0.13,0-0.13,0-0.13-0.14 c0-0.38,0-0.75,0-1.12c0-0.21,0.02-0.19-0.19-0.19c-0.36,0-0.73,0-1.09,0c-0.18,0-0.16,0.02-0.16-0.16c0-1.33,0-2.66,0-3.99 c0-0.22,0.02-0.2-0.2-0.2c-0.37,0-0.74,0-1.11,0c-0.14,0-0.14,0-0.14,0.15c0,0.38,0,0.77,0,1.15c0,0.15,0,0.15-0.14,0.15 c-0.39,0-0.78,0-1.17,0c-0.14,0-0.14,0-0.14,0.14c0,0.39,0,0.78,0,1.17c0,0.14,0,0.14-0.15,0.14c-0.38,0-0.77,0-1.15,0 c-0.15,0-0.15,0-0.15,0.14c0,0.38,0,0.77,0,1.15c0,0.16,0.01,0.15-0.15,0.15c-1.33,0-2.65,0-3.98,0c-0.04,0-0.07,0-0.1,0 c-0.11,0-0.11,0-0.11,0.12c0,0.38,0,0.76,0,1.14c0,0.21,0.03,0.19-0.19,0.19c-0.38,0-0.76,0-1.14,0c-0.12,0-0.12,0-0.12,0.12 c0,0.4,0,0.8,0,1.2c0,0.13,0,0.13-0.13,0.13c-0.38,0-0.77,0-1.15,0c-0.17,0-0.16-0.02-0.16,0.16c0,0.38,0,0.77,0,1.15 c0,0.14,0,0.14-0.14,0.14c-0.8,0-4.64,0-5.44,0c-0.03,0-0.06,0-0.09,0c-0.13,0-0.13,0-0.13-0.13c0-0.39,0-0.78,0-1.17 c0-0.15,0-0.15-0.16-0.15c-0.84,0-1.68,0-2.52,0c-0.03,0-0.06,0-0.09,0c-0.14,0-0.14,0-0.14-0.15c0-0.37,0-0.75,0-1.12 c0-0.19,0.02-0.18-0.17-0.18c-0.85,0-1.71,0-2.56,0c-0.18,0-0.17,0.02-0.17-0.17c0-0.38,0-0.76,0-1.14c0-0.14,0-0.14-0.15-0.14 c-0.38,0-0.75,0-1.12,0c-0.2,0-0.18,0.02-0.18-0.17c0-0.85,0-1.7,0-2.54c0-0.2,0.02-0.18-0.18-0.18c-0.38,0-0.75,0-1.12,0 c-0.15,0-0.14,0.01-0.14-0.15c0-1.09,0-2.18,0-3.27c0-0.27,0-0.53,0-0.8c0-0.13,0-0.13,0.14-0.13c0.38,0,0.77,0,1.15,0 c0.17,0,0.16,0,0.16-0.15c0-0.36,0-6.58,0-6.94c0-0.18,0-0.16,0.16-0.16c0.38,0,0.77,0,1.15,0c0.14,0,0.14,0,0.14-0.14 c0-0.77,0-1.54,0-2.31c0-1.54,0-3.08,0-4.62c0-0.21-0.02-0.18,0.18-0.18c0.38,0,0.76,0,1.14,0c0.13,0,0.13,0,0.13-0.13 c0-0.39,0-0.79,0-1.18c0-0.13,0-0.14,0.14-0.14c0.87,0,1.75,0,2.62,0c0.14,0,0.14,0,0.14,0.15c0,0.39,0,0.78,0,1.17 c0,0.13,0,0.13,0.13,0.13c0.4,0,0.79,0,1.18,0c0.14,0,0.14,0,0.14,0.14c0,0.39,0,0.78,0,1.17c0,0.15-0.01,0.14,0.15,0.14 c0.38,0,0.75,0,1.12,0c0.19,0,0.18-0.02,0.18,0.17c0,0.39,0,0.77,0,1.15c0,0.12,0,0.12,0.12,0.12c0.4,0,0.8,0,1.2,0 c0.13,0,0.13,0,0.13,0.13c0,0.86,0,1.73,0,2.59c0,0.2-0.02,0.18,0.18,0.18c0.36,0,0.73,0,1.09,0c0.18,0,0.17-0.02,0.17,0.17 c0,0.38,0,0.77,0,1.15c0,0.13,0,0.13,0.13,0.13c0.4,0,0.8,0,1.2,0c0.12,0,0.12,0,0.12-0.12c0-1.37,0-2.73,0-4.1 c0-0.13,0-0.13-0.13-0.13c-0.38,0-0.77,0-1.15,0c-0.18,0-0.16,0.02-0.16-0.16c0-0.38,0-0.77,0-1.15c0-0.14,0-0.14-0.14-0.14 c-0.39,0-0.79,0-1.18,0c-0.13,0-0.13,0-0.13-0.13c0-0.86,0-1.73,0-2.59c0-0.2,0.02-0.18-0.19-0.18c-0.37,0-0.74,0-1.11,0 c-0.16,0-0.15,0.01-0.15-0.15c0-0.38,0-0.77,0-1.15c0-0.15,0-0.15-0.15-0.15c-0.86,0-1.72,0-2.57,0c-0.2,0-0.18,0.02-0.18-0.18 c0-0.38,0-0.75,0-1.12c0-0.14,0-0.14-0.15-0.14c-0.38,0-0.76,0-1.14,0c-0.18,0-0.16,0.02-0.16-0.16c0-0.38,0-0.77,0-1.15 c0-0.14,0-0.14-0.14-0.14c-0.39,0-0.79,0-1.18,0c-0.13,0-0.13,0-0.13-0.13c0-0.39,0-0.78,0-1.17c0-0.15,0-0.15-0.16-0.15 c-0.38,0-0.76,0-1.14,0c-0.17,0-0.15,0.01-0.15-0.15c0-0.39,0-0.78,0-1.17c0-0.13,0-0.13-0.13-0.13c-0.39,0-0.79,0-1.18,0 c-0.13,0-0.14,0-0.14-0.14c0-0.86,0-1.72,0-2.57c0-0.21,0.02-0.19-0.19-0.19c-0.36,0-0.73,0-1.09,0c-0.18,0-0.16,0.02-0.16-0.16 c0-0.74,0-3.24,0-3.98c0-0.04,0-0.07,0-0.1c0-0.11,0-0.11,0.11-0.11c0.22,0,0.43,0,0.65,0c0.19,0,0.38,0,0.58,0 c0.11,0,0.11,0,0.11-0.12c0-0.49,0-0.99,0-1.48c0-0.37,0-0.75,0-1.12c0-0.2-0.01-0.18,0.19-0.18c0.38,0,0.75,0,1.12,0 c0.14,0,0.14,0,0.14-0.14c0-0.39,0-0.79,0-1.18c0-0.13,0-0.13,0.13-0.13c0.38,0,0.77,0,1.15,0c0.19,0,0.17,0.01,0.17-0.17 c0-0.38,0-0.76,0-1.14c0-0.14,0-0.14,0.14-0.14c0.39,0,0.79,0,1.18,0c0.13,0,0.13,0,0.13-0.13c0-0.39,0-0.78,0-1.17 c0-0.15,0-0.15,0.16-0.15c1.34,0,2.67,0,4.01,0c0.21,0,0.18,0.02,0.18-0.18c0-0.38,0-0.76,0-1.14c0-0.13,0-0.13,0.13-0.13 c1.36,0,2.72,0,4.08,0c0.13,0,0.13,0,0.13,0.14c0,0.38,0,0.76,0,1.14c0,0.19-0.02,0.17,0.18,0.17c1.31,0,2.61,0,3.92,0 c0.17,0,0.25,0.08,0.25,0.25c0,0.36,0,0.72,0,1.08c0,0.12,0,0.12,0.12,0.12c0.39,0,0.79,0,1.18,0c0.14,0,0.14,0,0.14,0.15 c0,0.38,0,0.76,0,1.14c0,0.18-0.02,0.16,0.16,0.16c0.38,0,0.75,0,1.12,0c0.18,0,0.17-0.01,0.17,0.17v8.32c0,0.04,0,0.07,0,0.1 c0,0.11,0,0.11-0.12,0.11c-0.38,0-0.77,0-1.15,0c-0.19,0-0.18-0.02-0.18,0.19c0,1.32,0,2.64,0,3.96c0,0.22,0.03,0.2-0.2,0.2 c-0.37,0-0.75,0-1.12,0c-0.13,0-0.13,0-0.13,0.13c0,0.25,0,0.5,0,0.75c0,1.58,0,3.16,0,4.73c0,0.2-0.02,0.18,0.18,0.18 c0.37,0,0.74,0,1.11,0c0.16,0,0.16,0,0.16,0.15c0,0.39,0,0.78,0,1.17c0,0.13,0,0.13,0.13,0.13c1.84,0,3.69,0,5.53,0 c0.14,0,0.14,0,0.14-0.14c0-1.36,0-2.71,0-4.07c0-0.02,0-0.05,0-0.07c0-0.05-0.03-0.07-0.07-0.07c-0.04,0-0.07,0-0.1,0 c-0.38,0-0.77,0-1.15,0c-0.11,0-0.11,0-0.12-0.11c0-0.03,0-0.06,0-0.09c0-2.77,0-5.53,0-8.3c0-0.23-0.02-0.2,0.2-0.2 c0.37,0,0.74,0,1.11,0c0.14,0,0.14,0,0.14-0.15c0-1.34,0-2.67,0-4.01c0-0.22-0.02-0.19,0.2-0.19c0.37,0,0.74,0,1.11,0 c0.14,0,0.14,0,0.14-0.14c0-0.39,0-0.79,0-1.18c0-0.13,0-0.13,0.13-0.13c0.39,0,0.78,0,1.17,0c0.15,0,0.15,0,0.15-0.16 c0-0.38,0-0.77,0-1.15c0-0.14,0-0.14,0.14-0.14c0.39,0,0.79,0,1.18,0c0.13,0,0.13,0,0.13-0.13c0-0.39,0-0.78,0-1.17 c0-0.15,0-0.15,0.16-0.15c0.38,0,0.76,0,1.14,0c0.17,0,0.15,0,0.15-0.15c0-0.39,0-0.78,0-1.17c0-0.13,0-0.13,0.13-0.13 c0.86,0,1.73,0,2.59,0c0.2,0,0.18,0.02,0.18-0.18c0-0.37,0-0.74,0-1.11c0-0.17,0-0.16,0.15-0.16c0.36,0,6.49,0,6.85,0 c0.04,0,0.07,0,0.1,0c0.15,0,0.15,0,0.15,0.15c0,0.39,0,0.78,0,1.17c0,0.13,0,0.13,0.14,0.13c0.38,0,0.75,0,1.12,0 c0.21,0,0.19-0.02,0.19,0.19c0,0.38,0,0.75,0,1.12c0,0.13,0,0.13,0.13,0.13c0.39,0,0.79,0,1.18,0c0.14,0,0.14,0,0.14,0.14 c0,0.39,0,0.79,0,1.18c0,0.13,0,0.13,0.13,0.13c0.38,0,0.76,0,1.14,0c0.2,0,0.18-0.02,0.18,0.19c0,0.37,0,0.75,0,1.12 c0,0.14,0,0.14,0.13,0.14c0.39,0,0.79,0,1.18,0c0.13,0,0.13,0,0.13,0.13c0,0.35,0,0.69,0,1.04c0,2.93,0,5.86,0,8.79 c0,0.23-0.03,0.2,0.19,0.2c0.37,0,0.74,0,1.11,0c0.15,0,0.15,0,0.15,0.15c0,1.42,0,2.84,0,4.26c0,0.88,0,1.77,0,2.65 c0,0.22,0.03,0.19-0.2,0.19c-0.36,0-0.73,0-1.09,0c-0.15,0-0.15,0-0.15,0.15c0,0.84,0,1.68,0,2.52c0,0.04,0,0.07,0,0.1 c0,0.13,0,0.13-0.13,0.13c-0.38,0-0.77,0-1.15,0c-0.18,0-0.16-0.02-0.16,0.17c0,0.38,0,0.76,0,1.14c0,0.14,0,0.14-0.14,0.14 c-0.39,0-0.79,0-1.18,0c-0.13,0-0.13,0-0.13,0.13c0,0.39,0,0.78,0,1.17c0,0.15,0,0.15-0.14,0.15c-1.36,0-2.71,0-4.07,0 c-0.02,0-0.04,0-0.06,0c-0.05,0-0.08-0.02-0.08-0.08c0-0.04,0-0.07,0-0.1c0-0.38,0-0.75,0-1.12c0-0.15,0-0.15-0.14-0.15 c-0.86,0-1.72,0-2.57,0c-0.2,0-0.18,0.02-0.18-0.18c0-0.38,0-0.75,0-1.12c0-0.14,0-0.14-0.13-0.14c-0.88,0-1.76,0-2.63,0 c-0.13,0-0.13,0-0.13,0.13c0,0.88,0,1.77,0,2.65c0,0.12,0,0.12,0.12,0.12c0.4,0,0.8,0,1.2,0c0.13,0,0.13,0,0.13,0.13 c0,0.39,0,0.78,0,1.17c0,0.16-0.01,0.15,0.15,0.15c2.29,0,4.59,0,6.88,0c0.24,0,0.21-0.03,0.21,0.21c0,0.37,0,0.73,0,1.09 c0,0.16-0.01,0.14,0.14,0.14c0.86,0,1.72,0,2.57,0c0.2,0,0.18-0.02,0.18,0.18c0,0.38,0,0.75,0,1.12c0,0.15-0.01,0.14,0.15,0.14 c0.38,0,0.76,0,1.14,0c0.17,0,0.16-0.01,0.16,0.16c0,0.39,0,0.78,0,1.17c0,0.12,0,0.12,0.12,0.12c0.4,0,0.8,0,1.2,0 c0.13,0,0.13,0,0.13,0.13c0,0.86,0,1.73,0,2.59c0,0.2-0.02,0.18,0.18,0.18c0.38,0,0.76,0,1.14,0c0.12,0,0.12,0,0.13,0.12 L152.06,125.17z M133.04,116.37c0.2,0,0.18,0.02,0.18-0.18c0-3.74,0-7.49,0-11.23c0-0.04,0-0.07,0-0.1c0-0.05-0.02-0.08-0.08-0.08 c-0.04,0-0.07,0-0.1,0c-0.38,0-0.77,0-1.15,0c-0.11,0-0.12,0-0.12-0.11c0-0.25,0-0.5,0-0.75c0-0.16,0-0.33,0-0.49 c0-0.07-0.03-0.1-0.1-0.09c-0.03,0-0.06,0-0.09,0c-0.84,0-1.69,0-2.53,0c-0.21,0-0.19-0.03-0.19,0.19c0,3.76,0,7.52,0,11.29 c0,0.46,0,0.92,0,1.38c0,0.22,0.03,0.19-0.2,0.19c-0.37,0-0.74,0-1.11,0c-0.14,0-0.14,0-0.14,0.14c0,0.39,0,0.79,0,1.18 c0,0.13,0,0.13-0.13,0.13c-1.37,0-2.73,0-4.1,0c-0.12,0-0.12,0-0.12-0.12c0-0.38,0-0.76,0-1.14c0-0.21,0.02-0.19-0.19-0.19 c-0.37,0-0.74,0-1.11,0c-0.15,0-0.15,0.01-0.15-0.14c0-0.39,0-0.79,0-1.18c0-0.12,0-0.12-0.12-0.12c-0.38,0-0.76,0-1.14,0 c-0.21,0-0.19,0.03-0.19-0.19c0-0.85,0-1.7,0-2.54c0-0.18,0.01-0.16-0.17-0.16c-0.36,0-0.73,0-1.09,0c-0.21,0-0.18,0.02-0.18-0.18 c0-2.12,0-5.28,0-7.4c0-1.77,0-3.55,0-5.32c0-0.15,0-0.15-0.13-0.15c-1.37,0-2.73,0-4.1,0c-0.12,0-0.12,0-0.12,0.12 c0,0.36,0,0.72,0,1.08c0,0.05,0,0.11,0,0.16c0,0.07-0.03,0.09-0.09,0.09c-0.04,0-0.07,0-0.1,0c-0.38,0-0.77,0-1.15,0 c-0.07,0-0.11,0.02-0.1,0.1c0,0.04,0,0.08,0,0.12v3.79c0,1.03,0,2.06,0,3.09c0,0.16-0.01,0.15,0.15,0.15c0.37,0,0.74,0,1.11,0 c0.21,0,0.19-0.02,0.19,0.19c0,0.86,0,1.72,0,2.57c0,0.14,0,0.14,0.14,0.14c0.38,0,0.76,0,1.14,0c0.19,0,0.17-0.02,0.17,0.18 c0,0.85,0,1.7,0,2.54c0,0.2-0.02,0.18,0.18,0.18c0.37,0,0.75,0,1.12,0c0.14,0,0.14,0,0.14,0.14c0,0.39,0,0.79,0,1.18 c0,0.13,0,0.13,0.13,0.13c0.4,0,0.8,0,1.2,0c0.12,0,0.12,0,0.12,0.12c0,0.38,0,0.76,0,1.14c0,0.21-0.03,0.19,0.19,0.19 c0.37,0,0.75,0,1.12,0c0.13,0,0.13,0,0.13,0.13c0,0.13,0,0.26,0,0.38c0,0.28,0,0.56,0,0.84c0,0.07,0.02,0.1,0.09,0.09 c0.03,0,0.07,0,0.1,0c0.38,0,0.76,0,1.14,0c0.11,0,0.11,0,0.12,0.12c0,0.16,0,0.33,0,0.49c0,0.24,0,0.48,0,0.73 c0,0.12,0,0.12,0.12,0.12c0.03,0,0.06,0,0.09,0c0.83,0,1.66,0,2.49,0c0.23,0,0.2-0.03,0.2,0.21c0,0.36,0,0.71,0,1.07 c0,0.04,0,0.07,0,0.1c0,0.05,0.02,0.07,0.07,0.07c0.04,0,0.08,0,0.12,0c0.38,0,0.77,0,1.15,0c0.1,0,0.11,0,0.11,0.11 c0,0.32,0,0.64,0,0.96c0,0.1,0,0.2,0,0.3c0,0.07,0.03,0.09,0.09,0.08c0.03,0,0.07,0,0.1,0c0.37,0,0.74,0,1.11,0 c0.15,0,0.15,0,0.15,0.16c0,0.21,0,0.41,0,0.62c0,1.62,0,3.23,0,4.85c0,0.19-0.02,0.17,0.16,0.17c0.36,0,0.73,0,1.09,0 c0.22,0,0.19,0.02,0.19-0.19c0-1.34,0-2.67,0-4.01c0-0.17,0-0.15,0.15-0.15c0.39,0,0.78,0,1.17,0c0.13,0,0.13,0,0.13-0.13 c0-0.36,0-2.24,0-2.6c0-0.18-0.01-0.16,0.16-0.16c0.16,0,0.31,0,0.47,0c0.24,0,0.48,0,0.73,0c0.07,0,0.1-0.02,0.09-0.09 c0-0.03,0-0.07,0-0.1v-2.25c0-0.59,0-1.18,0-1.77c0-0.13,0-0.13,0.13-0.13C132.28,116.36,132.66,116.36,133.04,116.37 L133.04,116.37z" class="st2"/></g><g><path d="M151.41,116.63c2.02,0,4.03,0,6.05,0c0.4,0,0.4,0,0.4,0.39c0,0.62,0,0.62,0.64,0.62c0.67,0,0.67,0,0.67,0.68 c0,1.06,0,2.12,0,3.19c0,0.4,0,0.4-0.42,0.4c-0.62,0-1.23,0.01-1.85,0c-0.24-0.01-0.31,0.08-0.31,0.31c0,0.77-0.01,0.77-0.79,0.77 c-3.05,0-6.1,0-9.14,0c-0.41,0-0.41,0-0.41-0.41c0-0.67,0-0.67-0.68-0.67c-0.53,0-1.05-0.01-1.58,0c-0.21,0-0.3-0.05-0.3-0.28 c0.01-1.24,0.01-2.48,0-3.72c0-0.21,0.08-0.28,0.28-0.27c0.24,0.01,0.48-0.01,0.71,0c0.2,0.01,0.27-0.07,0.26-0.26 c-0.01-0.17,0-0.34,0-0.51c-0.01-0.18,0.07-0.25,0.25-0.25c0.35,0.01,0.69,0,1.04,0C147.96,116.63,149.68,116.63,151.41,116.63z" class="st1"/></g></g><g><g><path d="M215.89,87.79v19.3h-5.88V92.76l-6.64,12.41l-1.03,1.92l0,0l-2.08,0l-2.08,0l0,0l-1.03-1.92l-6.64-12.41 v14.33h-5.88v-19.3h9.43l6.19,11.57l6.2-11.57H215.89z" class="st0"/></g><g><path d="M242.81,94.63c0,0.01,0,0.02,0,0.03l0.02,5c0,0.26-0.02,0.52-0.04,0.77c0,0.07-0.01,0.13-0.02,0.2 c-0.03,0.24-0.06,0.48-0.1,0.71c-0.01,0.05-0.02,0.09-0.03,0.14c-0.15,0.73-0.4,1.39-0.75,1.99c-0.02,0.03-0.04,0.07-0.06,0.11 c-0.11,0.18-0.23,0.35-0.36,0.52c-0.03,0.04-0.07,0.09-0.1,0.13c-0.59,0.72-1.35,1.3-2.28,1.75c-0.05,0.03-0.1,0.05-0.16,0.08 c-0.22,0.1-0.45,0.19-0.68,0.28c-0.04,0.02-0.09,0.03-0.14,0.05c-0.78,0.27-1.65,0.46-2.62,0.58c-0.04,0-0.08,0.01-0.13,0.02 c-0.3,0.03-0.62,0.06-0.94,0.08c-0.08,0-0.16,0.01-0.23,0.01c-0.33,0.02-0.67,0.03-1.02,0.03h-5.33 c-3.25,0.04-5.74-0.56-7.42-1.78c-0.08-0.06-0.15-0.13-0.23-0.19c-0.14-0.11-0.28-0.22-0.41-0.34c-0.11-0.1-0.21-0.22-0.31-0.33 c-0.08-0.09-0.16-0.17-0.24-0.27c-0.12-0.14-0.22-0.3-0.32-0.46c-0.05-0.07-0.09-0.14-0.14-0.21c-0.11-0.18-0.2-0.37-0.29-0.57 c-0.03-0.06-0.05-0.11-0.08-0.17c-0.09-0.21-0.17-0.44-0.24-0.67c-0.01-0.04-0.03-0.08-0.04-0.13c-0.07-0.25-0.13-0.5-0.17-0.77 c-0.01-0.03-0.01-0.06-0.02-0.09c-0.04-0.28-0.08-0.56-0.1-0.86c0-0.01,0-0.02,0-0.03l-0.02-5c0-0.26,0.02-0.52,0.04-0.77 c0-0.07,0.01-0.13,0.02-0.2c0.03-0.24,0.06-0.48,0.1-0.71c0.01-0.05,0.02-0.09,0.03-0.14c0.15-0.73,0.4-1.4,0.75-1.99 c0.02-0.04,0.04-0.07,0.06-0.11c0.11-0.18,0.23-0.35,0.36-0.52c0.03-0.04,0.07-0.09,0.1-0.13c0.59-0.72,1.35-1.3,2.28-1.75 c0.05-0.03,0.1-0.05,0.16-0.08c0.22-0.1,0.45-0.19,0.68-0.28c0.04-0.02,0.09-0.03,0.14-0.05c0.78-0.27,1.65-0.46,2.62-0.58 c0.04,0,0.08-0.01,0.13-0.02c0.3-0.03,0.62-0.06,0.94-0.08c0.08,0,0.16-0.01,0.23-0.01c0.33-0.02,0.67-0.03,1.02-0.03l5.33-0.01 v0.01c3.25-0.04,5.74,0.56,7.42,1.78c0.08,0.06,0.16,0.13,0.23,0.19c0.14,0.11,0.28,0.22,0.41,0.34c0.11,0.11,0.21,0.22,0.31,0.33 c0.08,0.09,0.16,0.17,0.24,0.27c0.12,0.14,0.22,0.3,0.32,0.46c0.04,0.07,0.09,0.14,0.14,0.21c0.11,0.18,0.2,0.37,0.29,0.57 c0.03,0.06,0.05,0.11,0.08,0.17c0.09,0.21,0.17,0.44,0.24,0.67c0.01,0.04,0.03,0.08,0.04,0.13c0.07,0.25,0.13,0.5,0.17,0.77 c0,0.03,0.01,0.06,0.02,0.09C242.76,94.05,242.79,94.34,242.81,94.63L242.81,94.63z M236.94,99.03c0.01-0.13,0.02-0.27,0.02-0.41 l-0.01-2.65c0-0.01,0-0.01,0-0.02c-0.01-0.16-0.03-0.31-0.05-0.46c0-0.02-0.01-0.03-0.01-0.05c-0.02-0.14-0.05-0.28-0.09-0.41 c-0.01-0.02-0.01-0.04-0.02-0.07c-0.04-0.12-0.08-0.24-0.13-0.35c-0.01-0.03-0.03-0.06-0.04-0.09c-0.05-0.1-0.1-0.2-0.16-0.3 c-0.02-0.04-0.05-0.08-0.07-0.11c-0.05-0.08-0.11-0.16-0.17-0.24c-0.04-0.05-0.08-0.09-0.12-0.14c-0.05-0.06-0.11-0.12-0.17-0.18 c-0.07-0.06-0.14-0.12-0.22-0.18c-0.04-0.03-0.08-0.07-0.12-0.1c-0.89-0.65-2.21-0.97-3.93-0.95v0l-2.83,0 c-0.19,0-0.37,0.01-0.54,0.01c-0.04,0-0.08,0-0.12,0.01c-0.17,0.01-0.34,0.02-0.5,0.04c-0.02,0-0.04,0.01-0.07,0.01 c-0.51,0.06-0.98,0.16-1.39,0.31c-0.02,0.01-0.05,0.02-0.07,0.02c-0.12,0.04-0.25,0.09-0.36,0.15c-0.03,0.01-0.05,0.03-0.08,0.04 c-0.49,0.24-0.9,0.55-1.21,0.93c-0.02,0.02-0.04,0.05-0.06,0.07c-0.07,0.09-0.13,0.18-0.19,0.28c-0.01,0.02-0.02,0.04-0.03,0.06 c-0.18,0.31-0.32,0.66-0.4,1.05c0,0.02-0.01,0.05-0.02,0.07c-0.02,0.12-0.04,0.25-0.05,0.38c0,0.04-0.01,0.07-0.01,0.1 c-0.01,0.13-0.02,0.27-0.02,0.41l0.01,2.65c0,0.01,0,0.01,0,0.02c0.01,0.16,0.03,0.31,0.05,0.46c0,0.02,0,0.03,0.01,0.05 c0.02,0.14,0.05,0.28,0.09,0.41c0.01,0.02,0.01,0.04,0.02,0.07c0.04,0.12,0.08,0.24,0.13,0.36c0.01,0.03,0.03,0.06,0.04,0.09 c0.05,0.1,0.1,0.2,0.16,0.3c0.02,0.04,0.05,0.07,0.07,0.11c0.05,0.08,0.11,0.17,0.17,0.24c0.04,0.05,0.08,0.09,0.12,0.14 c0.05,0.06,0.11,0.12,0.17,0.18c0.07,0.06,0.14,0.12,0.22,0.18c0.04,0.03,0.08,0.07,0.12,0.1c0.89,0.65,2.21,0.97,3.93,0.95h2.83 c0.19,0,0.37-0.01,0.54-0.01c0.04,0,0.08,0,0.12-0.01c0.17-0.01,0.34-0.02,0.5-0.04c0.02,0,0.04-0.01,0.07-0.01 c0.51-0.06,0.98-0.16,1.39-0.31c0.02-0.01,0.05-0.02,0.07-0.02c0.13-0.04,0.25-0.09,0.36-0.15c0.03-0.01,0.06-0.03,0.08-0.04 c0.5-0.24,0.9-0.55,1.21-0.93c0.02-0.02,0.04-0.05,0.06-0.07c0.07-0.09,0.13-0.18,0.19-0.28c0.01-0.02,0.02-0.04,0.03-0.06 c0.18-0.31,0.32-0.67,0.4-1.05c0-0.02,0.01-0.05,0.02-0.07c0.02-0.12,0.04-0.25,0.05-0.38C236.93,99.1,236.94,99.06,236.94,99.03 L236.94,99.03z" class="st0"/></g><g><path d="M269.18,94.63c0,0.01,0,0.02,0,0.03l0.02,5c0,0.26-0.02,0.52-0.04,0.77c0,0.07-0.01,0.13-0.02,0.2 c-0.03,0.24-0.06,0.48-0.1,0.71c-0.01,0.05-0.02,0.09-0.03,0.14c-0.15,0.73-0.4,1.39-0.75,1.99c-0.02,0.03-0.04,0.07-0.06,0.11 c-0.11,0.18-0.23,0.35-0.36,0.52c-0.03,0.04-0.07,0.09-0.1,0.13c-0.59,0.72-1.35,1.3-2.28,1.75c-0.05,0.03-0.1,0.05-0.16,0.08 c-0.22,0.1-0.45,0.19-0.68,0.28c-0.04,0.02-0.09,0.03-0.14,0.05c-0.78,0.27-1.65,0.46-2.62,0.58c-0.04,0-0.08,0.01-0.13,0.02 c-0.3,0.03-0.62,0.06-0.94,0.08c-0.08,0-0.16,0.01-0.23,0.01c-0.33,0.02-0.67,0.03-1.02,0.03h-5.33 c-3.25,0.04-5.74-0.56-7.42-1.78c-0.08-0.06-0.15-0.13-0.23-0.19c-0.14-0.11-0.28-0.22-0.41-0.34c-0.11-0.1-0.21-0.22-0.31-0.33 c-0.08-0.09-0.16-0.17-0.24-0.27c-0.12-0.14-0.22-0.3-0.32-0.46c-0.05-0.07-0.09-0.14-0.14-0.21c-0.11-0.18-0.2-0.37-0.29-0.57 c-0.03-0.06-0.05-0.11-0.08-0.17c-0.09-0.21-0.17-0.44-0.24-0.67c-0.01-0.04-0.03-0.08-0.04-0.13c-0.07-0.25-0.13-0.5-0.17-0.77 c-0.01-0.03-0.01-0.06-0.02-0.09c-0.04-0.28-0.08-0.56-0.1-0.86c0-0.01,0-0.02,0-0.03l-0.02-5c0-0.26,0.02-0.52,0.04-0.77 c0-0.07,0.01-0.13,0.02-0.2c0.03-0.24,0.06-0.48,0.1-0.71c0.01-0.05,0.02-0.09,0.03-0.14c0.15-0.73,0.4-1.4,0.75-1.99 c0.02-0.04,0.04-0.07,0.06-0.11c0.11-0.18,0.23-0.35,0.36-0.52c0.03-0.04,0.07-0.09,0.1-0.13c0.59-0.72,1.35-1.3,2.28-1.75 c0.05-0.03,0.1-0.05,0.16-0.08c0.22-0.1,0.45-0.19,0.68-0.28c0.04-0.02,0.09-0.03,0.14-0.05c0.78-0.27,1.65-0.46,2.62-0.58 c0.04,0,0.08-0.01,0.13-0.02c0.3-0.03,0.62-0.06,0.94-0.08c0.08,0,0.16-0.01,0.23-0.01c0.33-0.02,0.67-0.03,1.02-0.03l5.33-0.01 v0.01c3.25-0.04,5.74,0.56,7.42,1.78c0.08,0.06,0.16,0.13,0.23,0.19c0.14,0.11,0.28,0.22,0.41,0.34c0.11,0.11,0.21,0.22,0.31,0.33 c0.08,0.09,0.16,0.17,0.24,0.27c0.12,0.14,0.22,0.3,0.32,0.46c0.04,0.07,0.09,0.14,0.14,0.21c0.11,0.18,0.2,0.37,0.29,0.57 c0.03,0.06,0.05,0.11,0.08,0.17c0.09,0.21,0.17,0.44,0.24,0.67c0.01,0.04,0.03,0.08,0.04,0.13c0.07,0.25,0.13,0.5,0.17,0.77 c0,0.03,0.01,0.06,0.02,0.09C269.13,94.05,269.16,94.34,269.18,94.63L269.18,94.63z M263.31,99.03c0.01-0.13,0.02-0.27,0.02-0.41 l-0.01-2.65c0-0.01,0-0.01,0-0.02c-0.01-0.16-0.03-0.31-0.05-0.46c0-0.02-0.01-0.03-0.01-0.05c-0.02-0.14-0.05-0.28-0.09-0.41 c-0.01-0.02-0.01-0.04-0.02-0.07c-0.04-0.12-0.08-0.24-0.13-0.35c-0.01-0.03-0.03-0.06-0.04-0.09c-0.05-0.1-0.1-0.2-0.16-0.3 c-0.02-0.04-0.05-0.08-0.07-0.11c-0.05-0.08-0.11-0.16-0.17-0.24c-0.04-0.05-0.08-0.09-0.12-0.14c-0.05-0.06-0.11-0.12-0.17-0.18 c-0.07-0.06-0.14-0.12-0.22-0.18c-0.04-0.03-0.08-0.07-0.12-0.1c-0.89-0.65-2.21-0.97-3.93-0.95v0l-2.83,0 c-0.19,0-0.37,0.01-0.54,0.01c-0.04,0-0.08,0-0.12,0.01c-0.17,0.01-0.34,0.02-0.5,0.04c-0.02,0-0.04,0.01-0.07,0.01 c-0.51,0.06-0.98,0.16-1.39,0.31c-0.02,0.01-0.05,0.02-0.07,0.02c-0.13,0.04-0.25,0.09-0.36,0.15c-0.03,0.01-0.05,0.03-0.08,0.04 c-0.49,0.24-0.9,0.55-1.21,0.93c-0.02,0.02-0.04,0.05-0.06,0.07c-0.07,0.09-0.13,0.18-0.19,0.28c-0.01,0.02-0.02,0.04-0.03,0.06 c-0.18,0.31-0.32,0.66-0.4,1.05c0,0.02-0.01,0.05-0.02,0.07c-0.02,0.12-0.04,0.25-0.05,0.38c0,0.04-0.01,0.07-0.01,0.1 c-0.01,0.13-0.02,0.27-0.02,0.41l0.01,2.65c0,0.01,0,0.01,0,0.02c0.01,0.16,0.03,0.31,0.05,0.46c0,0.02,0,0.03,0.01,0.05 c0.02,0.14,0.05,0.28,0.09,0.41c0.01,0.02,0.01,0.04,0.02,0.07c0.04,0.12,0.08,0.24,0.13,0.36c0.01,0.03,0.03,0.06,0.04,0.09 c0.05,0.1,0.1,0.2,0.16,0.3c0.02,0.04,0.05,0.07,0.07,0.11c0.05,0.08,0.11,0.17,0.17,0.24c0.04,0.05,0.08,0.09,0.12,0.14 c0.05,0.06,0.11,0.12,0.17,0.18c0.07,0.06,0.14,0.12,0.21,0.18c0.04,0.03,0.08,0.07,0.12,0.1c0.89,0.65,2.21,0.97,3.93,0.95h2.83 c0.19,0,0.37-0.01,0.54-0.01c0.04,0,0.08,0,0.12-0.01c0.17-0.01,0.34-0.02,0.5-0.04c0.02,0,0.04-0.01,0.07-0.01 c0.51-0.06,0.98-0.16,1.39-0.31c0.02-0.01,0.05-0.02,0.07-0.02c0.13-0.04,0.25-0.09,0.36-0.15c0.03-0.01,0.06-0.03,0.08-0.04 c0.5-0.24,0.9-0.55,1.21-0.93c0.02-0.02,0.04-0.05,0.06-0.07c0.07-0.09,0.13-0.18,0.19-0.28c0.01-0.02,0.02-0.04,0.03-0.06 c0.18-0.31,0.32-0.67,0.4-1.05c0-0.02,0.01-0.05,0.02-0.07c0.02-0.12,0.04-0.25,0.05-0.38C263.3,99.1,263.3,99.06,263.31,99.03 L263.31,99.03z" class="st0"/></g><g><path d="M277,107.1h-5.88V87.79H277v0l9.5,0c0.35,0,0.69,0.01,1.02,0.03c0.08,0,0.16,0.01,0.23,0.01 c0.32,0.02,0.64,0.04,0.94,0.08c0.04,0,0.08,0.01,0.13,0.02c0.97,0.12,1.84,0.31,2.62,0.58c0.05,0.02,0.09,0.03,0.14,0.05 c0.24,0.09,0.46,0.18,0.68,0.28c0.05,0.02,0.1,0.05,0.16,0.07c0.93,0.45,1.69,1.03,2.28,1.75c0.04,0.04,0.07,0.09,0.1,0.13 c0.13,0.17,0.25,0.34,0.36,0.52c0.02,0.03,0.04,0.07,0.06,0.11c0.35,0.59,0.59,1.25,0.75,1.99c0.01,0.05,0.02,0.09,0.03,0.14 c0.04,0.23,0.08,0.47,0.1,0.71c0.01,0.07,0.01,0.13,0.02,0.2c0.02,0.25,0.04,0.5,0.04,0.77l-0.02,5c0,0.01,0,0.02,0,0.03 c-0.02,0.3-0.05,0.58-0.1,0.86c-0.01,0.03-0.01,0.06-0.02,0.09c-0.05,0.26-0.1,0.52-0.17,0.77c-0.01,0.04-0.03,0.08-0.04,0.13 c-0.07,0.23-0.15,0.46-0.24,0.67c-0.02,0.06-0.05,0.11-0.08,0.17c-0.09,0.19-0.18,0.38-0.29,0.57c-0.04,0.07-0.09,0.14-0.14,0.21 c-0.1,0.16-0.21,0.31-0.32,0.46c-0.07,0.09-0.16,0.18-0.24,0.27c-0.1,0.11-0.2,0.23-0.31,0.33c-0.13,0.12-0.27,0.23-0.41,0.34 c-0.08,0.06-0.15,0.13-0.23,0.19c-1.68,1.22-4.16,1.83-7.42,1.78H277V107.1z M285.16,92.33l-8.16,0v10.23h7.97 c1.73,0.02,3.04-0.3,3.93-0.95c0.04-0.03,0.08-0.07,0.12-0.1c0.07-0.06,0.15-0.12,0.22-0.18c0.06-0.06,0.11-0.12,0.17-0.18 c0.04-0.05,0.09-0.09,0.12-0.14c0.06-0.08,0.12-0.16,0.17-0.24c0.02-0.04,0.05-0.07,0.07-0.11c0.06-0.1,0.11-0.2,0.16-0.3 c0.01-0.03,0.03-0.06,0.04-0.09c0.05-0.11,0.09-0.23,0.13-0.35c0.01-0.02,0.02-0.04,0.02-0.07c0.04-0.13,0.07-0.27,0.09-0.41 c0-0.02,0.01-0.03,0.01-0.05c0.02-0.15,0.04-0.3,0.05-0.46c0-0.01,0-0.01,0-0.02l0.01-2.65c0-0.14-0.01-0.28-0.02-0.41 c0-0.04-0.01-0.07-0.01-0.1c-0.01-0.13-0.03-0.25-0.05-0.38c0-0.03-0.01-0.05-0.02-0.07c-0.08-0.39-0.21-0.74-0.4-1.05 c-0.01-0.02-0.02-0.04-0.03-0.06c-0.06-0.1-0.12-0.19-0.19-0.28c-0.02-0.02-0.04-0.05-0.06-0.07c-0.31-0.38-0.71-0.69-1.21-0.93 c-0.03-0.01-0.05-0.03-0.08-0.04c-0.12-0.05-0.24-0.1-0.36-0.15c-0.02-0.01-0.05-0.02-0.07-0.03c-0.41-0.14-0.88-0.24-1.39-0.31 c-0.02,0-0.04-0.01-0.07-0.01c-0.16-0.02-0.33-0.03-0.5-0.04c-0.04,0-0.08,0-0.12-0.01C285.53,92.33,285.35,92.33,285.16,92.33 L285.16,92.33z" class="st0"/></g><g><path d="M320.23,103.1v3.99h-22.14v-19.3h5.88v15.31H320.23z" class="st0"/></g><g><path d="M321.19,107.1v-19.3h22.14v3.99h-16.27v3.66h15.04v3.99h-8.03h-7.01v3.66h16.27v3.99H321.19z" class="st0"/></g><g><path d="M215.89,118.9v19.3h-5.88v-14.33l-6.64,12.41l-1.03,1.92l0,0l-2.08,0l-2.08,0l0,0l-1.03-1.92l-6.64-12.41 v14.33h-5.88v-19.3h9.43l6.19,11.57l6.2-11.57H215.89z" class="st0"/></g><g><path d="M222.77,138.21l-6.22,0l10.33-19.3h8.24l10.33,19.3l-6.22,0l-1.87-3.5h-12.72L222.77,138.21z M231,122.82 l-4.22,7.89h8.45L231,122.82L231,122.82z" class="st0"/></g><g><path d="M241.46,118.9h24.11v3.98h-9.12v15.33h-5.88v-15.33h-9.12V118.9z" class="st0"/></g><g><path d="M266.54,138.21v-19.3h22.14v3.99h-16.27v3.66h15.04v3.99h-8.03h-7.01v3.66h16.27v3.99H266.54z" class="st0"/></g></g></svg>